<svg aria-hidden="true" style="position:absolute;width:0;height:0;overflow:hidden"
	xmlns="http://www.w3.org/2000/svg">
	<defs>
		<symbol id="icon-btnhome" viewBox="0 0 69 32">
			<path fill="#6d8434" style="fill:var(--color1, #6d8434)"
				d="M16 0h37.333c8.837 0 16 7.163 16 16s-7.163 16-16 16H16C7.163 32 0 24.837 0 16S7.163 0 16 0z" />
			<path fill="#e8e8e2" style="fill:var(--color2, #e8e8e2)"
				d="M19.399 12.087h1.428v3.552h4.056v-3.552h1.428v8.58h-1.428v-3.804h-4.056v3.804h-1.428v-8.58zm11.124 8.76c-1.92 0-3.084-1.332-3.084-3.24s1.164-3.24 3.084-3.24c1.92 0 3.084 1.332 3.084 3.24s-1.164 3.24-3.084 3.24zm0-1.032c1.2 0 1.824-.948 1.824-2.208 0-1.272-.624-2.208-1.824-2.208s-1.824.936-1.824 2.208c0 1.26.624 2.208 1.824 2.208zm10.723-5.448c1.236 0 1.872.744 1.872 2.064v4.236h-1.272v-3.876c0-.828-.168-1.356-1.032-1.356-.852 0-1.38.588-1.38 1.5v3.732h-1.272v-3.876c0-.828-.168-1.356-1.044-1.356-.84 0-1.38.588-1.38 1.5v3.732h-1.26v-6.132h1.26v.792h.024c.324-.48.9-.96 1.824-.96.864 0 1.38.396 1.632 1.056h.024c.456-.588 1.056-1.056 2.004-1.056zm5.752 5.448c1.044 0 1.464-.648 1.572-1.02h1.26c-.312 1.164-1.224 2.052-2.796 2.052-1.908 0-3.072-1.32-3.072-3.24 0-1.992 1.164-3.24 3.012-3.24 1.98 0 2.952 1.38 2.952 3.564h-4.704c0 1.032.66 1.884 1.776 1.884zm-.024-4.452c-1.02 0-1.752.684-1.752 1.632h3.444c0-.948-.672-1.632-1.692-1.632z" />
		</symbol>
		<symbol id="icon-btnhomephone1" viewBox="0 0 65 32">
			<path fill="#6d8434" style="fill:var(--color1, #6d8434)"
				d="M16 0h32.842c8.837 0 16 7.163 16 16s-7.163 16-16 16H16C7.163 32 0 24.837 0 16S7.163 0 16 0z" />
			<path fill="#e8e8e2" style="fill:var(--color2, #e8e8e2)"
				d="M17.561 11.781h1.403v3.49h3.985v-3.49h1.403v8.429h-1.403v-3.737h-3.985v3.737h-1.403v-8.429zm10.929 8.606c-1.886 0-3.03-1.309-3.03-3.183s1.144-3.183 3.03-3.183 3.03 1.309 3.03 3.183-1.144 3.183-3.03 3.183zm0-1.014c1.179 0 1.792-.931 1.792-2.169 0-1.25-.613-2.169-1.792-2.169s-1.792.92-1.792 2.169c0 1.238.613 2.169 1.792 2.169zm10.535-5.352c1.214 0 1.839.731 1.839 2.028v4.162h-1.25v-3.808c0-.813-.165-1.332-1.014-1.332-.837 0-1.356.578-1.356 1.474v3.667h-1.25v-3.808c0-.813-.165-1.332-1.026-1.332-.825 0-1.356.578-1.356 1.474v3.667h-1.238v-6.024h1.238v.778h.024a2.082 2.082 0 0 1 1.792-.943c.849 0 1.356.389 1.603 1.037h.024c.448-.578 1.037-1.037 1.969-1.037zm5.652 5.352c1.026 0 1.438-.637 1.544-1.002h1.238c-.307 1.144-1.203 2.016-2.747 2.016-1.875 0-3.018-1.297-3.018-3.183 0-1.957 1.144-3.183 2.959-3.183 1.945 0 2.9 1.356 2.9 3.501h-4.621c0 1.014.648 1.851 1.745 1.851zM44.653 15c-1.002 0-1.721.672-1.721 1.603h3.384c0-.931-.66-1.603-1.662-1.603z" />
		</symbol>
		<symbol id="icon-cardgreen" viewBox="0 0 32 32">
			<path fill="#6d8434" style="fill:var(--color1, #6d8434)"
				d="M16 0c8.837 0 16 7.163 16 16s-7.163 16-16 16S0 24.837 0 16 7.163 0 16 0z" />
			<path fill="#e8e8e2" style="fill:var(--color2, #e8e8e2)"
				d="M10.695 9.179a.758.758 0 0 0 0 1.516h.925l.231.926.008.032 1.029 4.115-.677.676c-.955.955-.279 2.587 1.072 2.587h6.507a.758.758 0 0 0 0-1.516h-6.507l.758-.758h4.991a.754.754 0 0 0 .677-.419l2.274-4.547a.754.754 0 0 0-.033-.737.765.765 0 0 0-.644-.36h-8.125l-.235-.942a.758.758 0 0 0-.735-.573h-1.516zm9.852 11.747a1.137 1.137 0 1 1-2.274 0 1.137 1.137 0 0 1 2.274 0zm-7.2 1.137a1.137 1.137 0 1 0 0-2.274 1.137 1.137 0 0 0 0 2.274z" />
		</symbol>
		<symbol id="icon-cardgreenphone1" viewBox="0 0 32 32">
			<path fill="#6d8434" style="fill:var(--color1, #6d8434)"
				d="M16 0c8.837 0 16 7.163 16 16s-7.163 16-16 16S0 24.837 0 16 7.163 0 16 0z" />
			<path fill="#e8e8e2" style="fill:var(--color2, #e8e8e2)"
				d="M11.872 10.695a.59.59 0 0 0 0 1.18h.719l.18.72.006.025.8 3.201-.526.526c-.743.743-.217 2.012.834 2.012h5.061a.59.59 0 0 0 0-1.18h-5.061l.589-.589h3.882a.596.596 0 0 0 .527-.326l1.768-3.537a.596.596 0 0 0-.025-.573.585.585 0 0 0-.501-.28h-6.319l-.183-.733a.587.587 0 0 0-.572-.447h-1.179zm7.663 9.136a.882.882 0 0 1-1.509.625.884.884 0 1 1 1.509-.625zm-5.6.885a.882.882 0 0 0 .625-1.509.884.884 0 1 0-.625 1.509z" />
		</symbol>
		<symbol id="icon-logoheader" viewBox="0 0 196 32">
			<path fill="#6d8434" style="fill:var(--color1, #6d8434)"
				d="M32 16c0 8.837-7.163 16-16 16S0 24.837 0 16 7.163 0 16 0s16 7.163 16 16z" />
			<path fill="#e8e8e2" style="fill:var(--color2, #e8e8e2)"
				d="M16.93 8.89a3.363 3.363 0 0 0-1.136-1.067c-1.257-.721-2.876-.594-4.37.243C8.65 9.62 6.833 12.542 6.833 16c0 4.617 3.342 8.344 7.706 9.05.477.077.964.117 1.461.117a9.128 9.128 0 0 0 6.516-2.701 9.142 9.142 0 0 0 2.651-6.537c-.019-1.61-.665-3.586-1.686-5.165-1.017-1.573-2.58-3.007-4.523-2.988-.948.002-1.596.523-2.028 1.115V8.89zm5.546 3.454a3.944 3.944 0 0 0-1.052-.027l-.967-1.625-1.432.85.743 1.25a5.631 5.631 0 0 0-.887.521l-.015-.048c-.223-.675-.652-1.229-1.226-1.78l.003-.017c.058-.269.149-.617.287-.954.311-.763.672-1.073 1.033-1.073h.009c1.076-.012 2.197.814 3.109 2.226a8.6 8.6 0 0 1 .395.677l-.001.001zm-5.134 2.498a4.382 4.382 0 0 0-.833.098 3.127 3.127 0 0 0-.885-.954 2.683 2.683 0 0 0-2.535-.328 11.72 11.72 0 0 0-.27-.151l2.694-2.641-1.167-1.19-3.196 3.133c-.675-.196-1.306-.266-1.872-.188a7.257 7.257 0 0 1 2.962-3.102c1.137-.637 2.114-.602 2.726-.251.583.334 1.068 1.093.946 2.448l-.037.419.315.279c.685.606.97.998 1.093 1.372.087.262.115.58.059 1.056zM15 15.679c-.712.596-1.189 1.432-1.467 2.335l-2.478-2.721-1.232 1.123 3.407 3.74c-.004.993.123 2.01.308 2.929A7.46 7.46 0 0 1 8.5 15.999c0-.867.241-1.339.524-1.546.268-.197.855-.357 2.058.087.435.161.938.408 1.514.766l.418.26.43-.242c.519-.292.916-.188 1.22.025.133.093.248.21.335.329zm1.471 7.806 6.077-6.697-1.234-1.12-2.443 2.692.006-.845-1.667-.012-.019 2.708-2.069 2.281c-.157-.851-.25-1.765-.22-2.622.053-1.462.637-2.664 1.502-3.14.358-.198.991-.275 1.491-.187l.742.129.204-.724c.107-.377.389-.782.831-1.142a3.97 3.97 0 0 1 1.528-.763c.668-.163 1.237-.078 1.612.18.328.225.657.685.688 1.628v.015l.003.133a7.468 7.468 0 0 1-7.029 7.485z" />
			<path fill="#010101" style="fill:var(--color3, #010101)"
				d="M40 20.788c1.176-.144 1.824-.672 1.824-1.608V9.412c0-.936-.648-1.488-1.824-1.608v-.96h12.192c.216 0 .312.072.336.24.072.72.12 1.44.504 3.192h-.6c-.84-1.464-1.56-2.232-2.976-2.232h-2.04c-1.08 0-1.536.6-1.536 1.56v2.52c0 .96.456 1.488 1.536 1.488h.96c1.944 0 2.304-.456 2.496-1.536h.528v4.272h-.528c-.192-1.008-.552-1.512-2.496-1.512h-.96c-1.08 0-1.536.528-1.536 1.488v2.856c0 .936.648 1.464 2.064 1.608v.96H40v-.96zM59.089 21.892c-2.952 0-5.952-1.776-5.952-5.664 0-3.864 3-5.52 5.88-5.52 2.976 0 5.952 1.776 5.952 5.664 0 3.864-2.976 5.52-5.88 5.52zm-2.112-6.72c0 2.976.984 5.616 2.52 5.616.936 0 1.632-.936 1.632-3.408 0-2.952-.936-5.592-2.52-5.592-.96 0-1.632.96-1.632 3.384zM71.992 21.892c-2.952 0-5.952-1.776-5.952-5.664 0-3.864 3-5.52 5.88-5.52 2.976 0 5.952 1.776 5.952 5.664 0 3.864-2.976 5.52-5.88 5.52zm-2.112-6.72c0 2.976.984 5.616 2.52 5.616.936 0 1.632-.936 1.632-3.408 0-2.952-.936-5.592-2.52-5.592-.96 0-1.632.96-1.632 3.384zM83.527 21.892c-2.256 0-4.584-1.848-4.584-5.4 0-3.816 2.616-5.784 5.16-5.784 2.64 0 3.336 2.064 3.336-.36v-1.44c0-1.128-.624-1.32-1.512-1.248v-.936l3.912-.648c.816-.12 1.2.24 1.2.96V19.3c0 .792.312 1.32 1.008 1.032v.528c-.336.816-1.2 1.032-1.944 1.032-.816 0-1.848-.264-2.136-.984-.192-.456-.408-.696-.768-.696-.48 0-1.44 1.68-3.672 1.68zm-.72-6.648c0 2.376 1.056 4.704 2.592 4.704.936 0 2.04-.672 2.04-2.688v-1.128c0-3.12-1.464-4.344-2.664-4.344-1.224 0-1.968 1.512-1.968 3.456zM97.084 20.788c1.176-.144 1.824-.672 1.824-1.608V9.436c0-.96-.648-1.512-1.824-1.632v-.96h7.416c4.704 0 7.032 1.128 7.032 3.552 0 1.368-.792 2.712-3.528 3.144 3.072.432 4.392 1.872 4.392 3.912 0 2.784-2.472 4.296-5.832 4.296-1.92 0-6-.6-9.48 0v-.96zm5.88-1.248c0 .624.384.912 1.08.912h.84c1.824 0 3.192-.696 3.192-3.024 0-2.256-1.392-3.24-4.032-3.24-.624 0-1.08.48-1.08 1.44v3.912zm0-7.944c0 .96.456 1.44 1.536 1.44h.624c1.656 0 2.088-1.296 2.088-2.4 0-1.68-.912-2.616-2.472-2.616h-.24c-1.08 0-1.536.504-1.536 1.464v2.112zM119.431 21.892c-2.952 0-5.952-1.776-5.952-5.664 0-3.864 3-5.52 5.88-5.52 2.976 0 5.952 1.776 5.952 5.664 0 3.864-2.976 5.52-5.88 5.52zm-2.112-6.72c0 2.976.984 5.616 2.52 5.616.936 0 1.632-.936 1.632-3.408 0-2.952-.936-5.592-2.52-5.592-.96 0-1.632.96-1.632 3.384zM130.528 21.892c-1.68 0-3.504-.696-3.504-4.464v-3.816c0-1.104-.624-1.296-1.512-1.272v-.936l3.912-.648c.816-.12 1.2.24 1.2.96v5.136c0 1.68.696 2.88 1.992 2.88 1.32 0 1.992-1.2 1.992-2.88v-3.24c0-1.104-.624-1.296-1.512-1.272v-.936l3.888-.648c.84-.12 1.224.24 1.224.96V19.3c0 .792.312 1.32 1.008 1.032v.528c-.336.816-1.2 1.032-2.016 1.032-1.728 0-2.208-1.08-2.328-1.608-.072-.336-.264-.504-.432-.504s-.288.144-.408.312c-.672.912-1.608 1.8-3.504 1.8zM144.84 21.868c-2.208 0-3.552-1.224-3.552-3.552V13.06c0-.84-.192-1.008-.744-1.008h-1.08v-.768c1.992-.456 2.952-1.368 3.768-2.688.192-.312.36-.408.672-.408h.432c.36 0 .576.216.576.576l-.024 1.488c0 .528.264.672 1.488.672h1.56v1.272l-1.56-.096c-1.224-.072-1.488.144-1.488 1.008v5.088c0 1.32.144 2.208 1.32 2.208.312 0 .792-.048 1.248-.384.312.384.432.72.12 1.008-.552.48-1.536.84-2.736.84zM148.904 20.812c1.104-.072 1.512-.432 1.512-1.728v-5.496c0-1.128-.624-1.32-1.488-1.248v-.936l3.888-.648c.816-.12 1.2.24 1.2.96v7.368c0 1.296.408 1.656 1.488 1.728v.936h-6.6v-.936zm.936-13.08c0-1.152.96-2.04 2.088-2.04 1.104 0 2.04.888 2.04 2.04s-.936 2.04-2.04 2.04c-1.128 0-2.088-.888-2.088-2.04zM162.671 25.396c1.368-.096 1.776-.456 1.776-1.656v-2.568c0-.432-.216-.576-.432-.576-.12 0-.24.048-.336.144-.48.48-1.512 1.152-3.024 1.152-2.472 0-4.752-1.824-4.752-5.352 0-3.84 2.664-5.832 5.424-5.832 2.4 0 3.408 1.464 4.296 1.464.84 0 1.176-1.44 1.848-1.44.432 0 .576.24.576.576V23.74c0 1.2.408 1.56 1.488 1.656v.912h-6.864v-.912zm-2.904-10.176c0 2.376 1.008 4.728 2.688 4.728.912 0 1.968-.672 1.992-3.36-.024-3.6-1.512-4.8-2.712-4.8-1.296 0-1.968 1.512-1.968 3.432zM174.194 21.892c-1.68 0-3.504-.696-3.504-4.464v-3.816c0-1.104-.624-1.296-1.512-1.272v-.936l3.912-.648c.816-.12 1.2.24 1.2.96v5.136c0 1.68.696 2.88 1.992 2.88 1.32 0 1.992-1.2 1.992-2.88v-3.24c0-1.104-.624-1.296-1.512-1.272v-.936l3.888-.648c.84-.12 1.224.24 1.224.96V19.3c0 .792.312 1.32 1.008 1.032v.528c-.336.816-1.2 1.032-2.016 1.032-1.728 0-2.208-1.08-2.328-1.608-.072-.336-.264-.504-.432-.504s-.288.144-.408.312c-.672.912-1.608 1.8-3.504 1.8zM189.818 21.892c-3 0-5.976-1.728-5.976-5.496 0-3.936 3.216-5.688 6.192-5.688 2.544 0 4.608 1.272 4.608 3.384 0 2.16-2.088 2.28-4.2 2.448l-1.872.144c-.408.024-.624.216-.624.768 0 1.776 1.92 2.568 3.504 2.568.84 0 1.992-.24 2.856-1.224l.72.648c-.456.936-2.4 2.448-5.208 2.448zm-2.04-7.176c0 .696.168 1.056.792 1.032l.864-.096c1.656-.168 1.992-.6 1.992-1.536 0-1.152-.48-2.304-1.728-2.304-1.56 0-1.92 1.752-1.92 2.904z" />
		</symbol>
		<symbol id="icon-logoheadermob" viewBox="0 0 175 32">
			<path fill="#6d8434" style="fill:var(--color1, #6d8434)"
				d="M32 16c0 8.837-7.163 16-16 16S0 24.837 0 16 7.163 0 16 0s16 7.163 16 16z" />
			<path fill="#e8e8e2" style="fill:var(--color2, #e8e8e2)"
				d="M16.849 9.499a3.066 3.066 0 0 0-1.038-.975c-1.149-.659-2.629-.543-3.995.222C9.28 10.167 7.619 12.838 7.619 16c0 4.221 3.055 7.629 7.045 8.274.436.07.881.107 1.336.107a8.35 8.35 0 0 0 8.381-8.446c-.018-1.472-.608-3.278-1.541-4.722-.93-1.438-2.359-2.749-4.135-2.732-.867.002-1.459.478-1.855 1.019v-.001zm5.071 3.158a3.605 3.605 0 0 0-.962-.025l-.884-1.486-1.309.777.68 1.143a5.188 5.188 0 0 0-.811.476.566.566 0 0 0-.014-.044c-.203-.617-.597-1.124-1.121-1.627l.003-.015c.053-.246.136-.564.262-.872.284-.698.614-.981.945-.981h.008c.984-.011 2.008.744 2.843 2.035.13.2.25.407.361.619l-.001.001zm-4.694 2.284a4.05 4.05 0 0 0-.762.089 2.867 2.867 0 0 0-.809-.872 2.454 2.454 0 0 0-2.318-.299 11.947 11.947 0 0 0-.247-.138l2.463-2.414-1.067-1.088-2.922 2.864c-.617-.179-1.194-.243-1.712-.171a6.63 6.63 0 0 1 2.708-2.836c1.039-.582 1.933-.55 2.492-.229.533.306.976.999.865 2.238l-.034.383.288.255c.626.554.887.912 1 1.254.079.24.105.53.054.965zm-2.141.766c-.651.545-1.087 1.309-1.341 2.135l-2.266-2.488-1.127 1.027 3.115 3.419c-.004.908.113 1.838.282 2.678a6.822 6.822 0 0 1-4.606-6.479c0-.792.22-1.224.479-1.413.245-.18.782-.327 1.882.079.398.147.858.373 1.384.7l.382.238.393-.221c.475-.267.837-.172 1.115.023.122.085.226.192.306.301zm1.345 7.136 5.556-6.123-1.128-1.024-2.234 2.462.005-.773-1.524-.011-.018 2.476-1.892 2.085c-.143-.778-.229-1.614-.201-2.398.049-1.337.583-2.436 1.373-2.871.328-.181.906-.251 1.363-.171l.678.118.187-.662c.098-.345.356-.715.76-1.044.41-.331.887-.569 1.397-.698.61-.149 1.131-.072 1.474.165.299.206.6.626.629 1.489v.014l.002.122a6.822 6.822 0 0 1-6.427 6.843z" />
			<path fill="#010101" style="fill:var(--color3, #010101)"
				d="M41.143 20.104c1.008-.123 1.563-.576 1.563-1.378v-8.373c0-.802-.555-1.275-1.563-1.378v-.823h10.45c.185 0 .267.062.288.206.062.617.103 1.234.432 2.736h-.514c-.72-1.255-1.337-1.913-2.551-1.913h-1.749c-.926 0-1.317.514-1.317 1.337v2.16c0 .823.391 1.275 1.317 1.275h.823c1.666 0 1.975-.391 2.139-1.317h.453v3.662h-.453c-.165-.864-.473-1.296-2.139-1.296h-.823c-.926 0-1.317.453-1.317 1.275v2.448c0 .802.555 1.255 1.769 1.378v.823h-6.809v-.823zM57.505 21.05c-2.53 0-5.102-1.522-5.102-4.855 0-3.312 2.571-4.731 5.04-4.731 2.551 0 5.102 1.522 5.102 4.855 0 3.312-2.551 4.731-5.04 4.731zm-1.81-5.76c0 2.551.843 4.814 2.16 4.814.802 0 1.399-.802 1.399-2.921 0-2.53-.802-4.793-2.16-4.793-.823 0-1.399.823-1.399 2.901zM68.565 21.05c-2.53 0-5.102-1.522-5.102-4.855 0-3.312 2.571-4.731 5.04-4.731 2.551 0 5.102 1.522 5.102 4.855 0 3.312-2.551 4.731-5.04 4.731zm-1.811-5.76c0 2.551.843 4.814 2.16 4.814.802 0 1.399-.802 1.399-2.921 0-2.53-.802-4.793-2.16-4.793-.823 0-1.399.823-1.399 2.901zM78.452 21.05c-1.934 0-3.929-1.584-3.929-4.629 0-3.271 2.242-4.958 4.423-4.958 2.263 0 2.859 1.769 2.859-.309V9.92c0-.967-.535-1.131-1.296-1.07v-.802l3.353-.555c.699-.103 1.029.206 1.029.823v10.512c0 .679.267 1.131.864.885v.453c-.288.699-1.029.885-1.666.885-.699 0-1.584-.226-1.831-.843-.165-.391-.35-.597-.658-.597-.411 0-1.234 1.44-3.147 1.44zm-.618-5.698c0 2.037.905 4.032 2.222 4.032.802 0 1.749-.576 1.749-2.304v-.967c0-2.674-1.255-3.723-2.283-3.723-1.049 0-1.687 1.296-1.687 2.962zM90.072 20.104c1.008-.123 1.563-.576 1.563-1.378v-8.352c0-.823-.555-1.296-1.563-1.399v-.823h6.357c4.032 0 6.027.967 6.027 3.045 0 1.173-.679 2.325-3.024 2.695 2.633.37 3.765 1.605 3.765 3.353 0 2.386-2.119 3.682-4.999 3.682-1.646 0-5.143-.514-8.126 0v-.823zm5.04-1.07c0 .535.329.782.926.782h.72c1.563 0 2.736-.597 2.736-2.592 0-1.934-1.193-2.777-3.456-2.777-.535 0-.926.411-.926 1.234v3.353zm0-6.809c0 .823.391 1.234 1.317 1.234h.535c1.419 0 1.79-1.111 1.79-2.057 0-1.44-.782-2.242-2.119-2.242h-.206c-.926 0-1.317.432-1.317 1.255v1.81zM109.227 21.05c-2.53 0-5.102-1.522-5.102-4.855 0-3.312 2.571-4.731 5.04-4.731 2.551 0 5.102 1.522 5.102 4.855 0 3.312-2.551 4.731-5.04 4.731zm-1.81-5.76c0 2.551.843 4.814 2.16 4.814.802 0 1.399-.802 1.399-2.921 0-2.53-.802-4.793-2.16-4.793-.823 0-1.399.823-1.399 2.901zM118.738 21.05c-1.44 0-3.003-.597-3.003-3.826v-3.271c0-.946-.535-1.111-1.296-1.09v-.802l3.353-.555c.699-.103 1.029.206 1.029.823v4.402c0 1.44.597 2.469 1.707 2.469 1.131 0 1.707-1.029 1.707-2.469v-2.777c0-.946-.535-1.111-1.296-1.09v-.802l3.333-.555c.72-.103 1.049.206 1.049.823v6.501c0 .679.267 1.131.864.885v.453c-.288.699-1.029.885-1.728.885-1.481 0-1.893-.926-1.995-1.378-.062-.288-.226-.432-.37-.432s-.247.123-.35.267c-.576.782-1.378 1.543-3.003 1.543zM131.006 21.03c-1.893 0-3.045-1.049-3.045-3.045V13.48c0-.72-.165-.864-.638-.864h-.926v-.658c1.707-.391 2.53-1.173 3.23-2.304.165-.267.309-.35.576-.35h.37c.309 0 .494.185.494.494l-.021 1.275c0 .453.226.576 1.275.576h1.337v1.09l-1.337-.082c-1.049-.062-1.275.123-1.275.864v4.361c0 1.131.123 1.893 1.131 1.893.267 0 .679-.041 1.07-.329.267.329.37.617.103.864-.473.411-1.317.72-2.345.72zM134.489 20.125c.946-.062 1.296-.37 1.296-1.481v-4.711c0-.967-.535-1.131-1.275-1.07v-.802l3.333-.555c.699-.103 1.029.206 1.029.823v6.315c0 1.111.35 1.419 1.275 1.481v.802h-5.657v-.802zm.802-11.212c0-.987.823-1.749 1.79-1.749.946 0 1.749.761 1.749 1.749s-.802 1.749-1.749 1.749c-.967 0-1.79-.761-1.79-1.749zM146.289 24.054c1.173-.082 1.522-.391 1.522-1.419v-2.201c0-.37-.185-.494-.37-.494a.406.406 0 0 0-.288.123c-.411.411-1.296.987-2.592.987-2.119 0-4.073-1.563-4.073-4.587 0-3.291 2.283-4.999 4.649-4.999 2.057 0 2.921 1.255 3.682 1.255.72 0 1.008-1.234 1.584-1.234.37 0 .494.206.494.494v10.656c0 1.029.35 1.337 1.275 1.419v.782h-5.883v-.782zm-2.489-8.723c0 2.037.864 4.053 2.304 4.053.782 0 1.687-.576 1.707-2.88-.021-3.086-1.296-4.114-2.325-4.114-1.111 0-1.687 1.296-1.687 2.942zM156.167 21.05c-1.44 0-3.003-.597-3.003-3.826v-3.271c0-.946-.535-1.111-1.296-1.09v-.802l3.353-.555c.699-.103 1.029.206 1.029.823v4.402c0 1.44.597 2.469 1.707 2.469 1.131 0 1.707-1.029 1.707-2.469v-2.777c0-.946-.535-1.111-1.296-1.09v-.802l3.333-.555c.72-.103 1.049.206 1.049.823v6.501c0 .679.267 1.131.864.885v.453c-.288.699-1.029.885-1.728.885-1.481 0-1.893-.926-1.995-1.378-.062-.288-.226-.432-.37-.432s-.247.123-.35.267c-.576.782-1.378 1.543-3.003 1.543zM169.558 21.05c-2.571 0-5.122-1.481-5.122-4.711 0-3.374 2.757-4.875 5.307-4.875 2.181 0 3.95 1.09 3.95 2.901 0 1.851-1.79 1.954-3.6 2.098l-1.605.123c-.35.021-.535.185-.535.658 0 1.522 1.646 2.201 3.003 2.201.72 0 1.707-.206 2.448-1.049l.617.555c-.391.802-2.057 2.098-4.464 2.098zm-1.749-6.151c0 .597.144.905.679.885l.741-.082c1.419-.144 1.707-.514 1.707-1.317 0-.987-.411-1.975-1.481-1.975-1.337 0-1.646 1.502-1.646 2.489z" />
		</symbol>
		<symbol id="icon-organic_food" viewBox="0 0 32 32">
			<path fill="#fdc152" style="fill:var(--color1, #fdc152)"
				d="M32 16c0 8.837-7.163 16-16 16S0 24.837 0 16 7.163 0 16 0s16 7.163 16 16z" />
			<path fill="#010101" style="fill:var(--color2, #010101)"
				d="M25.174 17.182c.104-.813.731-1.233 1.538-1.13s1.308.668 1.204 1.48c-.104.813-.731 1.233-1.538 1.13s-1.308-.668-1.204-1.481zm.437.056c-.065.508.303.823.836.891.538.069.968-.145 1.033-.652s-.297-.823-.836-.891c-.533-.068-.968.145-1.033.652zM27.137 20.516a1.724 1.724 0 0 1-.093.217l-.478-.169.003-.01c.255-.458.065-.966-.461-1.152l-1.26-.446.179-.507 2.466.873-.179.507-.463-.164-.003.01c.263.24.403.518.289.841zM25.819 22.819l-.284.457-2.07-1.286c-.639-.397-.682-.96-.29-1.59.397-.639.951-.784 1.355-.599l-.286.461c-.223-.078-.468-.013-.692.348-.238.383-.185.687.215.935l.27.167.005-.009c-.092-.22-.131-.527.088-.879.346-.557.992-.734 1.692-.299.705.438.828 1.093.482 1.65-.219.352-.511.454-.741.474l-.005.009.261.162zm-1.37-1.676c-.23.37-.124.743.346 1.035s.851.221 1.081-.149c.248-.4.075-.791-.338-1.048-.409-.254-.84-.238-1.089.162zM23.459 24.426c.131.137.311.164.571-.083.312-.296.335-.502.121-.765l.379-.36c.327.381.365.889-.207 1.433-.419.399-.883.535-1.362.031l-.857-.902c-.127-.134-.224-.176-.362-.016l-.176-.186a.8.8 0 0 1 .188-.256c.208-.198.375-.215.588-.065l.007-.007c-.04-.28.066-.6.359-.878.386-.367.835-.37 1.138-.051.395.416.21.838-.176 1.383-.24.334-.383.541-.21.723zm-.544-1.666c-.323.307-.394.678-.101.986l.272.286c.021-.104.131-.294.277-.504.256-.377.309-.604.125-.797-.166-.174-.361-.172-.573.029zM21.582 26.621c-.427.233-.899.171-1.186-.355l-.867-1.586.476-.26.793 1.451c.169.31.408.436.731.26.364-.199.477-.547.29-.888l-.764-1.397.472-.258 1.255 2.296-.472.258-.162-.297-.009.005c-.023.246-.163.556-.558.772zM19.932 27.718c.141-.046.319.004.376.18s-.059.315-.2.361c-.151.049-.322.002-.379-.173s.053-.319.204-.368zm.117-.501-.511.166-.808-2.489.511-.166.808 2.489zM16.83 26.935c.054.261.263.56.72.502.523-.067.689-.542.627-1.03s-.338-.907-.866-.839c-.457.058-.584.395-.568.687l-.533.068c-.036-.604.37-1.105 1.045-1.192.777-.099 1.351.395 1.455 1.208s-.327 1.436-1.099 1.534c-.675.086-1.172-.289-1.314-.87l.533-.068zM11.643 27.731c.328.118.466.124.554-.16l.085-.274-.459-.143.131-.42.459.143.648-2.077.518.162-.648 2.077.357.111-.131.42-.357-.111-.099.318c-.165.528-.447.643-.858.515a1.86 1.86 0 0 1-.331-.141l.131-.42zM11.604 24.07c.717.396.878 1.133.484 1.846s-1.103.971-1.82.575c-.717-.396-.878-1.133-.484-1.846s1.103-.971 1.82-.575zm-.213.385c-.448-.247-.877-.022-1.136.449-.262.475-.222.954.226 1.201s.874.026 1.136-.449c.26-.471.222-.954-.226-1.201z" />
			<path fill="#010101" style="fill:var(--color2, #010101)"
				d="M9.701 22.674c.594.564.562 1.318.001 1.909s-1.312.66-1.906.096-.562-1.318-.001-1.909c.561-.59 1.312-.66 1.906-.096zm-.303.32c-.371-.353-.843-.243-1.213.147-.374.393-.456.866-.085 1.219s.839.247 1.213-.147c.37-.39.456-.866.085-1.219z" />
			<path fill="#010101" style="fill:var(--color2, #010101)"
				d="m4.684 22.229-.277-.461 3.138-1.885.277.461-.259.156.005.009a.978.978 0 0 1 .736.49c.345.575.153 1.27-.584 1.713s-1.441.286-1.786-.289c-.208-.347-.178-.664-.078-.885l-.005-.009-1.167.701zm3.196-1.084c-.227-.377-.678-.423-1.174-.125-.5.301-.668.718-.441 1.095.243.404.74.397 1.179.134s.678-.7.436-1.104zM6.849 16.375c.032.819-.517 1.337-1.331 1.368s-1.401-.443-1.432-1.262c-.032-.819.517-1.337 1.331-1.368s1.401.443 1.432 1.261zm-.44.017c-.02-.512-.434-.762-.971-.741-.542.021-.931.302-.911.814s.429.762.971.741c.537-.021.931-.302.911-.814zM4.369 13.36c.016-.091.033-.155.057-.229l.499.089-.002.01c-.177.494.093.963.642 1.062l1.315.235-.095.529-2.575-.461.095-.529.484.087.002-.01c-.298-.194-.482-.445-.422-.783zM5.287 10.885l.206-.497 2.252.933c.695.288.828.836.544 1.522-.288.695-.811.928-1.239.811l.208-.501c.232.041.464-.063.626-.455.172-.416.071-.707-.364-.888l-.293-.121-.004.009c.127.202.215.499.056.882-.251.605-.86.885-1.621.57-.766-.317-.995-.944-.744-1.549.159-.383.431-.531.654-.588l.004-.009-.284-.118zm1.623 1.432c.167-.402.002-.753-.509-.965s-.876-.08-1.042.322c-.18.435.054.793.503.979.445.184.868.099 1.048-.336zM7.356 8.912c-.151-.115-.333-.112-.55.173-.261.342-.251.549.003.774l-.316.415c-.384-.324-.502-.82-.024-1.447.351-.46.786-.669 1.34-.247l.99.754c.147.112.249.138.36-.041l.204.155a.817.817 0 0 1-.144.283c-.174.228-.336.272-.571.158l-.006.008c.084.27.03.602-.215.924-.323.424-.766.498-1.116.232-.456-.347-.341-.794-.046-1.393.184-.368.292-.595.093-.747zm.802 1.558c.27-.354.281-.732-.057-.99l-.314-.239c-.004.107-.082.311-.193.541-.192.413-.208.646.003.807.191.146.384.112.561-.12zM8.821 6.462c.383-.3.859-.316 1.228.155l1.116 1.422-.427.335-1.021-1.301c-.218-.278-.474-.364-.764-.136-.326.256-.381.618-.141.924l.983 1.253-.423.332-1.615-2.058.423-.332.209.266.008-.006c-.018-.246.069-.575.424-.853zM10.294 5.089c-.132.068-.315.048-.4-.116s.007-.321.139-.389c.141-.073.318-.055.402.109s0 .323-.141.396zm-.034.514.477-.247 1.204 2.323-.477.247-1.204-2.323zM13.485 5.351c-.096-.249-.35-.51-.792-.377-.505.151-.592.648-.451 1.119s.481.839.991.686c.441-.132.512-.485.448-.77l.515-.154c.134.591-.184 1.151-.837 1.346-.75.225-1.398-.169-1.633-.954s.089-1.47.834-1.693c.652-.195 1.204.094 1.438.643l-.515.154zM18.451 3.719c-.343-.063-.48-.046-.521.248l-.04.284.477.067-.061.436-.477-.067-.301 2.155-.538-.075.301-2.155-.37-.052.061-.436.37.052.046-.33c.076-.548.337-.708.763-.648.132.018.246.05.35.085l-.061.436zM19.096 7.321c-.772-.273-1.051-.975-.779-1.742s.929-1.137 1.702-.864c.772.273 1.051.975.779 1.742s-.929 1.137-1.702.864zm.147-.415c.483.171.869-.122 1.048-.628.181-.512.063-.977-.419-1.148s-.867.117-1.048.628c-.179.507-.063.977.419 1.148z" />
			<path fill="#010101" style="fill:var(--color2, #010101)"
				d="M21.17 8.361c-.678-.46-.77-1.209-.313-1.883s1.187-.865 1.865-.405c.678.46.77 1.209.313 1.883s-1.187.865-1.865.405zm.247-.364c.424.287.871.102 1.173-.343.305-.449.308-.929-.115-1.216s-.868-.106-1.173.343c-.302.445-.308.929.115 1.216zM26.247 8.03l.347.411-2.796 2.363-.347-.411.231-.195-.007-.008a.979.979 0 0 1-.805-.365c-.433-.512-.355-1.229.302-1.784s1.376-.513 1.809-.001c.261.309.282.627.218.861l.007.008 1.04-.879zm-2.98 1.582c.284.336.737.309 1.179-.065.446-.377.544-.815.26-1.152-.304-.36-.794-.274-1.186.057s-.558.8-.253 1.16zM17.6 14.72c-2.88.64-3.552 2.614-4.218 4.269l.605.211.304-.736c.154.054.314.096.429.096 3.52 0 4.48-5.44 4.48-5.44-.32.64-2.56.72-4.16 1.04s-2.24 1.68-2.24 2.32c0 .64.56 1.2.56 1.2 1.04-2.96 4.24-2.96 4.24-2.96z" />
		</symbol>
		<symbol id="icon-baseline-search" viewBox="0 0 32 32">
			<path
				d="M20.667 18.667h-1.053l-0.373-0.36c1.352-1.568 2.095-3.57 2.093-5.64 0-1.714-0.508-3.39-1.46-4.815s-2.306-2.536-3.89-3.192c-1.584-0.656-3.326-0.828-5.007-0.493s-3.225 1.16-4.437 2.372c-1.212 1.212-2.037 2.756-2.372 4.437s-0.163 3.424 0.493 5.007c0.656 1.584 1.767 2.937 3.192 3.89s3.101 1.46 4.815 1.46c2.147 0 4.12-0.787 5.64-2.093l0.36 0.373v1.053l6.667 6.653 1.987-1.987-6.653-6.667zM12.667 18.667c-3.32 0-6-2.68-6-6s2.68-6 6-6c3.32 0 6 2.68 6 6s-2.68 6-6 6z"></path>
		</symbol>
		<symbol id="icon-cart-hover" viewBox="0 0 32 32">
			<path fill="#586f1f" style="fill:var(--color3, #586f1f)"
				d="M16 0c8.837 0 16 7.163 16 16s-7.163 16-16 16S0 24.837 0 16 7.163 0 16 0z" />
			<path fill="#e8e8e2" style="fill:var(--color1, #e8e8e2)"
				d="M10.071 8.377a.846.846 0 1 0 0 1.694h1.033l.258 1.035.008.036 1.15 4.6-.756.756c-1.067 1.067-.312 2.892 1.198 2.892h7.273a.846.846 0 1 0 0-1.694h-7.273l.847-.847h5.579a.845.845 0 0 0 .757-.469l2.541-5.082a.849.849 0 0 0-.037-.824.843.843 0 0 0-.72-.401h-9.08l-.263-1.053a.848.848 0 0 0-.822-.641H10.07zm11.011 13.129a1.27 1.27 0 1 1-2.54 0 1.27 1.27 0 0 1 2.54 0zm-8.047 1.27a1.27 1.27 0 1 0 0-2.54 1.27 1.27 0 0 0 0 2.54z" />
		</symbol>
		<symbol id="icon-check" viewBox="0 0 32 32">
			<path fill="#6d8434" style="fill:var(--color2, #6d8434)"
				d="M16 0c8.837 0 16 7.163 16 16s-7.163 16-16 16S0 24.837 0 16 7.163 0 16 0z" />
			<path fill="none" stroke="#e8e8e2" style="stroke:var(--color1, #e8e8e2)"
				stroke-linejoin="round" stroke-linecap="round" stroke-width="1.882"
				d="m21.647 11.765-7.765 7.765-3.529-3.529" />
		</symbol>
		<symbol id="icon-remove-from-hover-mobile" viewBox="0 0 120 32">
			<path fill="#586f1f" style="fill:var(--color1, #586f1f)"
				d="M16 0h87.619c8.837 0 16 7.163 16 16s-7.163 16-16 16H16C7.163 32 0 24.837 0 16S7.163 0 16 0z" />
			<path fill="#e8e8e2" style="fill:var(--color2, #e8e8e2)"
				d="M18.936 19.81v-7.627h3.253c1.568 0 2.581.8 2.581 2.187 0 1.067-.544 1.685-1.419 1.899v.021c1.76.331 1.12 3.317 1.525 3.445v.075h-1.333c-.352-.32.363-2.944-1.472-2.944h-1.867v2.944h-1.269zm1.27-6.55v2.517h1.717c.779 0 1.589-.149 1.589-1.259 0-1.099-.811-1.259-1.589-1.259h-1.717zm7.847 5.792c.928 0 1.301-.576 1.397-.907h1.12c-.277 1.035-1.088 1.824-2.485 1.824-1.696 0-2.731-1.173-2.731-2.88 0-1.771 1.035-2.88 2.677-2.88 1.76 0 2.624 1.227 2.624 3.168h-4.181c0 .917.587 1.675 1.579 1.675zm-.022-3.957c-.907 0-1.557.608-1.557 1.451h3.061c0-.843-.597-1.451-1.504-1.451zm9.408-.885c1.099 0 1.664.661 1.664 1.835v3.765h-1.131v-3.445c0-.736-.149-1.205-.917-1.205-.757 0-1.227.523-1.227 1.333v3.317h-1.131v-3.445c0-.736-.149-1.205-.928-1.205-.747 0-1.227.523-1.227 1.333v3.317h-1.12v-5.451h1.12v.704h.021c.288-.427.8-.853 1.621-.853.768 0 1.227.352 1.451.939h.021c.405-.523.939-.939 1.781-.939zm5.156 5.76c-1.707 0-2.741-1.184-2.741-2.88s1.035-2.88 2.741-2.88c1.707 0 2.741 1.184 2.741 2.88s-1.035 2.88-2.741 2.88zm0-.918c1.067 0 1.621-.843 1.621-1.963 0-1.131-.555-1.963-1.621-1.963s-1.621.832-1.621 1.963c0 1.12.555 1.963 1.621 1.963zm2.847-4.693h1.184l1.376 4.267h.011l1.376-4.267h1.184l-1.931 5.451h-1.269l-1.931-5.451zm7.944 4.693c.928 0 1.301-.576 1.397-.907h1.12c-.277 1.035-1.088 1.824-2.485 1.824-1.696 0-2.731-1.173-2.731-2.88 0-1.771 1.035-2.88 2.677-2.88 1.76 0 2.624 1.227 2.624 3.168h-4.181c0 .917.587 1.675 1.579 1.675zm-.021-3.957c-.907 0-1.557.608-1.557 1.451h3.061c0-.843-.597-1.451-1.504-1.451zm7.993-1.995c-.725-.032-1.003.043-1.003.661v.597h1.003v.917h-1.003v4.533h-1.131v-4.533h-.779v-.917h.779v-.693c0-1.152.491-1.557 1.387-1.557.277 0 .523.032.747.075v.917zm3.334 1.131a3.5 3.5 0 0 1 .491.032v1.056h-.021c-1.077-.181-1.941.544-1.941 1.707v2.784h-1.12v-5.451h1.12v1.024h.021c.288-.683.736-1.152 1.451-1.152zm3.487 5.739c-1.707 0-2.741-1.184-2.741-2.88s1.035-2.88 2.741-2.88c1.707 0 2.741 1.184 2.741 2.88s-1.035 2.88-2.741 2.88zm0-.918c1.067 0 1.621-.843 1.621-1.963 0-1.131-.555-1.963-1.621-1.963s-1.621.832-1.621 1.963c0 1.12.555 1.963 1.621 1.963zm9.531-4.842c1.099 0 1.664.661 1.664 1.835v3.765h-1.131v-3.445c0-.736-.149-1.205-.917-1.205-.757 0-1.226.523-1.226 1.333v3.317h-1.131v-3.445c0-.736-.149-1.205-.928-1.205-.747 0-1.227.523-1.227 1.333v3.317h-1.12v-5.451h1.12v.704h.021c.288-.427.8-.853 1.621-.853.768 0 1.227.352 1.451.939h.021c.405-.523.938-.939 1.781-.939zM89.677 9.829a.683.683 0 0 0-.685.686.688.688 0 0 0 .685.686h.837l.209.838.007.029.931 3.723-.612.612c-.864.864-.252 2.341.969 2.341h5.888a.687.687 0 0 0 0-1.372h-5.888l.686-.686h4.517a.684.684 0 0 0 .612-.38l2.057-4.114a.682.682 0 0 0-.278-.905.685.685 0 0 0-.334-.087h-7.351l-.213-.852a.684.684 0 0 0-.665-.519h-1.371zm8.914 10.628a1.029 1.029 0 1 1-2.058-.001 1.029 1.029 0 0 1 2.058.001zm-6.514 1.029a1.027 1.027 0 1 0 0-2.056 1.03 1.03 0 0 0-.728 1.755c.193.193.455.301.728.301z" />
		</symbol>
		<symbol id="icon-remove-from-normal-mobile" viewBox="0 0 120 32">
			<path fill="#6d8434" style="fill:var(--color3, #6d8434)"
				d="M16 0h87.619c8.837 0 16 7.163 16 16s-7.163 16-16 16H16C7.163 32 0 24.837 0 16S7.163 0 16 0z" />
			<path fill="#e8e8e2" style="fill:var(--color2, #e8e8e2)"
				d="M18.936 19.81v-7.627h3.253c1.568 0 2.581.8 2.581 2.187 0 1.067-.544 1.685-1.419 1.899v.021c1.76.331 1.12 3.317 1.525 3.445v.075h-1.333c-.352-.32.363-2.944-1.472-2.944h-1.867v2.944h-1.269zm1.27-6.55v2.517h1.717c.779 0 1.589-.149 1.589-1.259 0-1.099-.811-1.259-1.589-1.259h-1.717zm7.847 5.792c.928 0 1.301-.576 1.397-.907h1.12c-.277 1.035-1.088 1.824-2.485 1.824-1.696 0-2.731-1.173-2.731-2.88 0-1.771 1.035-2.88 2.677-2.88 1.76 0 2.624 1.227 2.624 3.168h-4.181c0 .917.587 1.675 1.579 1.675zm-.022-3.957c-.907 0-1.557.608-1.557 1.451h3.061c0-.843-.597-1.451-1.504-1.451zm9.408-.885c1.099 0 1.664.661 1.664 1.835v3.765h-1.131v-3.445c0-.736-.149-1.205-.917-1.205-.757 0-1.227.523-1.227 1.333v3.317h-1.131v-3.445c0-.736-.149-1.205-.928-1.205-.747 0-1.227.523-1.227 1.333v3.317h-1.12v-5.451h1.12v.704h.021c.288-.427.8-.853 1.621-.853.768 0 1.227.352 1.451.939h.021c.405-.523.939-.939 1.781-.939zm5.156 5.76c-1.707 0-2.741-1.184-2.741-2.88s1.035-2.88 2.741-2.88c1.707 0 2.741 1.184 2.741 2.88s-1.035 2.88-2.741 2.88zm0-.918c1.067 0 1.621-.843 1.621-1.963 0-1.131-.555-1.963-1.621-1.963s-1.621.832-1.621 1.963c0 1.12.555 1.963 1.621 1.963zm2.847-4.693h1.184l1.376 4.267h.011l1.376-4.267h1.184l-1.931 5.451h-1.269l-1.931-5.451zm7.944 4.693c.928 0 1.301-.576 1.397-.907h1.12c-.277 1.035-1.088 1.824-2.485 1.824-1.696 0-2.731-1.173-2.731-2.88 0-1.771 1.035-2.88 2.677-2.88 1.76 0 2.624 1.227 2.624 3.168h-4.181c0 .917.587 1.675 1.579 1.675zm-.021-3.957c-.907 0-1.557.608-1.557 1.451h3.061c0-.843-.597-1.451-1.504-1.451zm7.993-1.995c-.725-.032-1.003.043-1.003.661v.597h1.003v.917h-1.003v4.533h-1.131v-4.533h-.779v-.917h.779v-.693c0-1.152.491-1.557 1.387-1.557.277 0 .523.032.747.075v.917zm3.334 1.131a3.5 3.5 0 0 1 .491.032v1.056h-.021c-1.077-.181-1.941.544-1.941 1.707v2.784h-1.12v-5.451h1.12v1.024h.021c.288-.683.736-1.152 1.451-1.152zm3.487 5.739c-1.707 0-2.741-1.184-2.741-2.88s1.035-2.88 2.741-2.88c1.707 0 2.741 1.184 2.741 2.88s-1.035 2.88-2.741 2.88zm0-.918c1.067 0 1.621-.843 1.621-1.963 0-1.131-.555-1.963-1.621-1.963s-1.621.832-1.621 1.963c0 1.12.555 1.963 1.621 1.963zm9.531-4.842c1.099 0 1.664.661 1.664 1.835v3.765h-1.131v-3.445c0-.736-.149-1.205-.917-1.205-.757 0-1.226.523-1.226 1.333v3.317h-1.131v-3.445c0-.736-.149-1.205-.928-1.205-.747 0-1.227.523-1.227 1.333v3.317h-1.12v-5.451h1.12v.704h.021c.288-.427.8-.853 1.621-.853.768 0 1.227.352 1.451.939h.021c.405-.523.938-.939 1.781-.939zM89.677 9.829a.683.683 0 0 0-.685.686.688.688 0 0 0 .685.686h.837l.209.838.007.029.931 3.723-.612.612c-.864.864-.252 2.341.969 2.341h5.888a.687.687 0 0 0 0-1.372h-5.888l.686-.686h4.517a.684.684 0 0 0 .612-.38l2.057-4.114a.682.682 0 0 0-.278-.905.685.685 0 0 0-.334-.087h-7.351l-.213-.852a.684.684 0 0 0-.665-.519h-1.371zm8.914 10.628a1.029 1.029 0 1 1-2.058-.001 1.029 1.029 0 0 1 2.058.001zm-6.514 1.029a1.027 1.027 0 1 0 0-2.056 1.03 1.03 0 0 0-.728 1.755c.193.193.455.301.728.301z" />
		</symbol>
		<symbol id="icon-add-to-normal" viewBox="0 0 104 32">
			<path fill="#6d8434" style="fill:var(--color2, #6d8434)"
				d="M16 0h72c8.837 0 16 7.163 16 16s-7.163 16-16 16H16C7.163 32 0 24.837 0 16S7.163 0 16 0z" />
			<path fill="#e8e8e2" style="fill:var(--color1, #e8e8e2)"
				d="M28.506 18.637h-3.738l-.742 2.163h-1.549l3.366-9.152h1.6l3.354 9.152h-1.549l-.742-2.163zM25.19 17.37h2.906l-1.434-4.326h-.026L25.19 17.37zm10.708-5.722h1.344V20.8h-1.344v-.755h-.026c-.346.448-.986.947-1.997.947-1.677 0-2.918-1.306-2.918-3.456s1.242-3.456 2.918-3.456c1.011 0 1.651.474 1.997.973h.026v-3.405zm-1.792 8.243c1.101 0 1.779-.909 1.779-2.355 0-1.459-.678-2.355-1.779-2.355-1.178 0-1.805 1.075-1.805 2.355s.627 2.355 1.805 2.355zm9.017-8.243h1.344V20.8h-1.344v-.755h-.026c-.346.448-.986.947-1.997.947-1.677 0-2.918-1.306-2.918-3.456s1.242-3.456 2.918-3.456c1.011 0 1.651.474 1.997.973h.026v-3.405zm-1.792 8.243c1.101 0 1.779-.909 1.779-2.355 0-1.459-.678-2.355-1.779-2.355-1.178 0-1.805 1.075-1.805 2.355s.627 2.355 1.805 2.355zm9.982-4.531h-1.229v3.546c0 .742.358.832 1.229.781v1.101a3.899 3.899 0 0 1-.922.102c-1.075 0-1.664-.486-1.664-1.869V15.36h-.947v-1.101h.947v-2.061h1.357v2.061h1.229v1.101zm3.859 5.632c-2.048 0-3.29-1.421-3.29-3.456s1.242-3.456 3.29-3.456 3.29 1.421 3.29 3.456-1.242 3.456-3.29 3.456zm0-1.101c1.28 0 1.946-1.011 1.946-2.355 0-1.357-.666-2.355-1.946-2.355s-1.946.998-1.946 2.355c0 1.344.666 2.355 1.946 2.355zM69.36 9.52a.72.72 0 0 0 0 1.44h.878l.22.88.007.03.978 3.91-.643.642c-.907.907-.265 2.458 1.018 2.458H78a.72.72 0 0 0 0-1.44h-6.182l.72-.72h4.742a.726.726 0 0 0 .643-.398l2.16-4.32a.725.725 0 0 0-.032-.7.73.73 0 0 0-.612-.341h-7.718l-.223-.895a.723.723 0 0 0-.698-.545h-1.44zm9.36 11.16a1.077 1.077 0 0 1-1.08 1.08 1.077 1.077 0 0 1-1.08-1.08 1.077 1.077 0 0 1 1.08-1.08 1.077 1.077 0 0 1 1.08 1.08zm-6.84 1.08a1.077 1.077 0 0 0 1.08-1.08 1.077 1.077 0 0 0-1.08-1.08 1.077 1.077 0 0 0-1.08 1.08 1.077 1.077 0 0 0 1.08 1.08z" />
		</symbol>

		<symbol id="icon-add-to-hover-mobile" viewBox="0 0 88 32">
			<path fill="#586f1f" style="fill:var(--color1, #586f1f)"
				d="M16 0h56.381c8.837 0 16 7.163 16 16s-7.163 16-16 16H16C7.163 32 0 24.837 0 16S7.163 0 16 0z" />
			<path fill="#e8e8e2" style="fill:var(--color2, #e8e8e2)"
				d="M23.374 18.007h-3.115l-.619 1.803h-1.291l2.805-7.627h1.333l2.795 7.627h-1.291l-.619-1.803zm-2.763-1.056h2.421l-1.195-3.605h-.021l-1.205 3.605zm8.923-4.768h1.12v7.627h-1.12v-.629h-.021c-.288.373-.821.789-1.664.789-1.397 0-2.432-1.088-2.432-2.88s1.035-2.88 2.432-2.88c.843 0 1.376.395 1.664.811h.021v-2.837zm-1.494 6.869c.917 0 1.483-.757 1.483-1.963 0-1.216-.565-1.963-1.483-1.963-.981 0-1.504.896-1.504 1.963s.523 1.963 1.504 1.963zm7.515-6.869h1.12v7.627h-1.12v-.629h-.021c-.288.373-.821.789-1.664.789-1.397 0-2.432-1.088-2.432-2.88s1.035-2.88 2.432-2.88c.843 0 1.376.395 1.664.811h.021v-2.837zm-1.494 6.869c.917 0 1.483-.757 1.483-1.963 0-1.216-.565-1.963-1.483-1.963-.981 0-1.504.896-1.504 1.963s.523 1.963 1.504 1.963zm8.319-3.776h-1.024v2.955c0 .619.299.693 1.024.651v.917a3.263 3.263 0 0 1-.768.085c-.896 0-1.387-.405-1.387-1.557v-3.051h-.789v-.917h.789v-1.717h1.131v1.717h1.024v.917zm3.215 4.694c-1.707 0-2.741-1.184-2.741-2.88s1.035-2.88 2.741-2.88c1.707 0 2.741 1.184 2.741 2.88s-1.035 2.88-2.741 2.88zm0-.918c1.067 0 1.621-.843 1.621-1.963 0-1.131-.555-1.963-1.621-1.963s-1.621.832-1.621 1.963c0 1.12.555 1.963 1.621 1.963zM58.439 9.829a.685.685 0 1 0 0 1.372h.837l.209.838.007.029.931 3.723-.612.612c-.864.864-.252 2.341.97 2.341h5.888a.685.685 0 1 0 0-1.372h-5.888l.686-.686h4.516a.684.684 0 0 0 .613-.38l2.057-4.114a.693.693 0 0 0-.03-.667.685.685 0 0 0-.583-.325h-7.351l-.213-.852a.688.688 0 0 0-.665-.519H58.44zm8.914 10.628a1.027 1.027 0 1 1-2.054.001 1.027 1.027 0 0 1 2.054-.001zm-6.514 1.029a1.027 1.027 0 1 0 .001-2.054 1.027 1.027 0 0 0-.001 2.054z" />
		</symbol>
		<symbol id="icon-add-to-normal-mobile" viewBox="0 0 88 32">
			<path fill="#6d8434" style="fill:var(--color3, #6d8434)"
				d="M16 0h56.381c8.837 0 16 7.163 16 16s-7.163 16-16 16H16C7.163 32 0 24.837 0 16S7.163 0 16 0z" />
			<path fill="#e8e8e2" style="fill:var(--color2, #e8e8e2)"
				d="M23.374 18.007h-3.115l-.619 1.803h-1.291l2.805-7.627h1.333l2.795 7.627h-1.291l-.619-1.803zm-2.763-1.056h2.421l-1.195-3.605h-.021l-1.205 3.605zm8.923-4.768h1.12v7.627h-1.12v-.629h-.021c-.288.373-.821.789-1.664.789-1.397 0-2.432-1.088-2.432-2.88s1.035-2.88 2.432-2.88c.843 0 1.376.395 1.664.811h.021v-2.837zm-1.494 6.869c.917 0 1.483-.757 1.483-1.963 0-1.216-.565-1.963-1.483-1.963-.981 0-1.504.896-1.504 1.963s.523 1.963 1.504 1.963zm7.515-6.869h1.12v7.627h-1.12v-.629h-.021c-.288.373-.821.789-1.664.789-1.397 0-2.432-1.088-2.432-2.88s1.035-2.88 2.432-2.88c.843 0 1.376.395 1.664.811h.021v-2.837zm-1.494 6.869c.917 0 1.483-.757 1.483-1.963 0-1.216-.565-1.963-1.483-1.963-.981 0-1.504.896-1.504 1.963s.523 1.963 1.504 1.963zm8.319-3.776h-1.024v2.955c0 .619.299.693 1.024.651v.917a3.263 3.263 0 0 1-.768.085c-.896 0-1.387-.405-1.387-1.557v-3.051h-.789v-.917h.789v-1.717h1.131v1.717h1.024v.917zm3.215 4.694c-1.707 0-2.741-1.184-2.741-2.88s1.035-2.88 2.741-2.88c1.707 0 2.741 1.184 2.741 2.88s-1.035 2.88-2.741 2.88zm0-.918c1.067 0 1.621-.843 1.621-1.963 0-1.131-.555-1.963-1.621-1.963s-1.621.832-1.621 1.963c0 1.12.555 1.963 1.621 1.963zM58.439 9.829a.685.685 0 1 0 0 1.372h.837l.209.838.007.029.931 3.723-.612.612c-.864.864-.252 2.341.97 2.341h5.888a.685.685 0 1 0 0-1.372h-5.888l.686-.686h4.516a.684.684 0 0 0 .613-.38l2.057-4.114a.693.693 0 0 0-.03-.667.685.685 0 0 0-.583-.325h-7.351l-.213-.852a.688.688 0 0 0-.665-.519H58.44zm8.914 10.628a1.027 1.027 0 1 1-2.054.001 1.027 1.027 0 0 1 2.054-.001zm-6.514 1.029a1.027 1.027 0 1 0 .001-2.054 1.027 1.027 0 0 0-.001 2.054z" />
		</symbol>
		<symbol id="icon-remove-from-hover" viewBox="0 0 142 32">
			<path fill="#586f1f" style="fill:var(--color1, #586f1f)"
				d="M16 0h109.6c8.837 0 16 7.163 16 16s-7.163 16-16 16H16C7.163 32 0 24.837 0 16S7.163 0 16 0z" />
			<path fill="#e8e8e2" style="fill:var(--color2, #e8e8e2)"
				d="M23.181 20.8v-9.152h3.904c1.882 0 3.098.96 3.098 2.624 0 1.28-.653 2.022-1.702 2.278v.026c2.112.397 1.344 3.981 1.83 4.134v.09h-1.6c-.422-.384.435-3.533-1.766-3.533h-2.24V20.8h-1.523zm1.523-7.859v3.021h2.061c.934 0 1.907-.179 1.907-1.51 0-1.318-.973-1.51-1.907-1.51h-2.061zm9.416 6.95c1.114 0 1.562-.691 1.677-1.088h1.344c-.333 1.242-1.306 2.189-2.982 2.189-2.035 0-3.277-1.408-3.277-3.456 0-2.125 1.242-3.456 3.213-3.456 2.112 0 3.149 1.472 3.149 3.802h-5.018c0 1.101.704 2.01 1.894 2.01zm-.025-4.749c-1.088 0-1.869.73-1.869 1.741H35.9c0-1.011-.717-1.741-1.805-1.741zm11.289-1.062c1.318 0 1.997.794 1.997 2.202V20.8h-1.357v-4.134c0-.883-.179-1.446-1.101-1.446-.909 0-1.472.627-1.472 1.6v3.981h-1.357v-4.134c0-.883-.179-1.446-1.114-1.446-.896 0-1.472.627-1.472 1.6v3.981h-1.344v-6.541h1.344v.845h.026a2.263 2.263 0 0 1 1.946-1.024c.922 0 1.472.422 1.741 1.126h.026c.486-.627 1.126-1.126 2.138-1.126zm6.188 6.912c-2.048 0-3.29-1.421-3.29-3.456s1.242-3.456 3.29-3.456 3.29 1.421 3.29 3.456-1.242 3.456-3.29 3.456zm0-1.101c1.28 0 1.946-1.011 1.946-2.355 0-1.357-.666-2.355-1.946-2.355s-1.946.998-1.946 2.355c0 1.344.666 2.355 1.946 2.355zm3.416-5.632h1.421l1.651 5.12h.013l1.651-5.12h1.421L58.828 20.8h-1.523l-2.317-6.541zm9.532 5.632c1.114 0 1.562-.691 1.677-1.088h1.344c-.333 1.242-1.306 2.189-2.982 2.189-2.035 0-3.277-1.408-3.277-3.456 0-2.125 1.242-3.456 3.213-3.456 2.112 0 3.149 1.472 3.149 3.802h-5.018c0 1.101.704 2.01 1.894 2.01zm-.025-4.749c-1.088 0-1.869.73-1.869 1.741H66.3c0-1.011-.717-1.741-1.805-1.741zm9.592-2.393c-.87-.038-1.203.051-1.203.794v.717h1.203v1.101h-1.203v5.44h-1.357v-5.44h-.934V14.26h.934v-.832c0-1.382.589-1.869 1.664-1.869.333 0 .627.038.896.09v1.101zm4.001 1.357c.23 0 .397.013.589.038v1.267h-.026c-1.293-.218-2.33.653-2.33 2.048V20.8h-1.344v-6.541h1.344v1.229h.026c.346-.819.883-1.382 1.741-1.382zm4.183 6.886c-2.048 0-3.289-1.421-3.289-3.456s1.241-3.456 3.289-3.456 3.29 1.421 3.29 3.456-1.242 3.456-3.29 3.456zm0-1.101c1.28 0 1.946-1.011 1.946-2.355 0-1.357-.666-2.355-1.946-2.355s-1.946.998-1.946 2.355c0 1.344.666 2.355 1.946 2.355zM93.71 14.08c1.318 0 1.997.794 1.997 2.202V20.8H94.35v-4.134c0-.883-.179-1.446-1.101-1.446-.909 0-1.472.627-1.472 1.6v3.981H90.42v-4.134c0-.883-.179-1.446-1.114-1.446-.896 0-1.472.627-1.472 1.6v3.981H86.49v-6.541h1.344v.845h.026a2.263 2.263 0 0 1 1.946-1.024c.922 0 1.472.422 1.741 1.126h.026c.486-.627 1.126-1.126 2.138-1.126zM106.96 9.52a.72.72 0 0 0 0 1.44h.878l.22.88.007.03.978 3.91-.643.642c-.907.907-.265 2.458 1.018 2.458h6.182a.72.72 0 0 0 0-1.44h-6.182l.72-.72h4.742c.134 0 .265-.037.378-.108s.206-.171.266-.29l2.16-4.32a.725.725 0 0 0-.032-.7.73.73 0 0 0-.612-.341h-7.718l-.223-.895a.723.723 0 0 0-.698-.545h-1.44zm9.36 11.16a1.078 1.078 0 0 1-1.844.764 1.083 1.083 0 0 1 0-1.528 1.084 1.084 0 0 1 1.528 0c.202.203.316.477.316.764zm-6.84 1.08a1.077 1.077 0 0 0 1.08-1.08 1.078 1.078 0 0 0-1.844-.764 1.083 1.083 0 0 0 0 1.528c.203.203.478.316.764.316z" />
		</symbol>
		<symbol id="icon-remove-from-normal" viewBox="0 0 142 32">
			<path fill="#6d8434" style="fill:var(--color3, #6d8434)"
				d="M16 0h109.6c8.837 0 16 7.163 16 16s-7.163 16-16 16H16C7.163 32 0 24.837 0 16S7.163 0 16 0z" />
			<path fill="#e8e8e2" style="fill:var(--color2, #e8e8e2)"
				d="M23.181 20.8v-9.152h3.904c1.882 0 3.098.96 3.098 2.624 0 1.28-.653 2.022-1.702 2.278v.026c2.112.397 1.344 3.981 1.83 4.134v.09h-1.6c-.422-.384.435-3.533-1.766-3.533h-2.24V20.8h-1.523zm1.523-7.859v3.021h2.061c.934 0 1.907-.179 1.907-1.51 0-1.318-.973-1.51-1.907-1.51h-2.061zm9.416 6.95c1.114 0 1.562-.691 1.677-1.088h1.344c-.333 1.242-1.306 2.189-2.982 2.189-2.035 0-3.277-1.408-3.277-3.456 0-2.125 1.242-3.456 3.213-3.456 2.112 0 3.149 1.472 3.149 3.802h-5.018c0 1.101.704 2.01 1.894 2.01zm-.025-4.749c-1.088 0-1.869.73-1.869 1.741H35.9c0-1.011-.717-1.741-1.805-1.741zm11.289-1.062c1.318 0 1.997.794 1.997 2.202V20.8h-1.357v-4.134c0-.883-.179-1.446-1.101-1.446-.909 0-1.472.627-1.472 1.6v3.981h-1.357v-4.134c0-.883-.179-1.446-1.114-1.446-.896 0-1.472.627-1.472 1.6v3.981h-1.344v-6.541h1.344v.845h.026a2.263 2.263 0 0 1 1.946-1.024c.922 0 1.472.422 1.741 1.126h.026c.486-.627 1.126-1.126 2.138-1.126zm6.188 6.912c-2.048 0-3.29-1.421-3.29-3.456s1.242-3.456 3.29-3.456 3.29 1.421 3.29 3.456-1.242 3.456-3.29 3.456zm0-1.101c1.28 0 1.946-1.011 1.946-2.355 0-1.357-.666-2.355-1.946-2.355s-1.946.998-1.946 2.355c0 1.344.666 2.355 1.946 2.355zm3.416-5.632h1.421l1.651 5.12h.013l1.651-5.12h1.421L58.828 20.8h-1.523l-2.317-6.541zm9.532 5.632c1.114 0 1.562-.691 1.677-1.088h1.344c-.333 1.242-1.306 2.189-2.982 2.189-2.035 0-3.277-1.408-3.277-3.456 0-2.125 1.242-3.456 3.213-3.456 2.112 0 3.149 1.472 3.149 3.802h-5.018c0 1.101.704 2.01 1.894 2.01zm-.025-4.749c-1.088 0-1.869.73-1.869 1.741H66.3c0-1.011-.717-1.741-1.805-1.741zm9.592-2.393c-.87-.038-1.203.051-1.203.794v.717h1.203v1.101h-1.203v5.44h-1.357v-5.44h-.934V14.26h.934v-.832c0-1.382.589-1.869 1.664-1.869.333 0 .627.038.896.09v1.101zm4.001 1.357c.23 0 .397.013.589.038v1.267h-.026c-1.293-.218-2.33.653-2.33 2.048V20.8h-1.344v-6.541h1.344v1.229h.026c.346-.819.883-1.382 1.741-1.382zm4.183 6.886c-2.048 0-3.289-1.421-3.289-3.456s1.241-3.456 3.289-3.456 3.29 1.421 3.29 3.456-1.242 3.456-3.29 3.456zm0-1.101c1.28 0 1.946-1.011 1.946-2.355 0-1.357-.666-2.355-1.946-2.355s-1.946.998-1.946 2.355c0 1.344.666 2.355 1.946 2.355zM93.71 14.08c1.318 0 1.997.794 1.997 2.202V20.8H94.35v-4.134c0-.883-.179-1.446-1.101-1.446-.909 0-1.472.627-1.472 1.6v3.981H90.42v-4.134c0-.883-.179-1.446-1.114-1.446-.896 0-1.472.627-1.472 1.6v3.981H86.49v-6.541h1.344v.845h.026a2.263 2.263 0 0 1 1.946-1.024c.922 0 1.472.422 1.741 1.126h.026c.486-.627 1.126-1.126 2.138-1.126zM106.96 9.52a.72.72 0 0 0 0 1.44h.878l.22.88.007.03.978 3.91-.643.642c-.907.907-.265 2.458 1.018 2.458h6.182a.72.72 0 0 0 0-1.44h-6.182l.72-.72h4.742c.134 0 .265-.037.378-.108s.206-.171.266-.29l2.16-4.32a.725.725 0 0 0-.032-.7.73.73 0 0 0-.612-.341h-7.718l-.223-.895a.723.723 0 0 0-.698-.545h-1.44zm9.36 11.16a1.078 1.078 0 0 1-1.844.764 1.083 1.083 0 0 1 0-1.528 1.084 1.084 0 0 1 1.528 0c.202.203.316.477.316.764zm-6.84 1.08a1.077 1.077 0 0 0 1.08-1.08 1.078 1.078 0 0 0-1.844-.764 1.083 1.083 0 0 0 0 1.528c.203.203.478.316.764.316z" />
		</symbol>
		<symbol id="icon-send-mobile-hover" viewBox="0 0 255 32">
			<path fill="#e8e8e2" style="fill:var(--color2, #e8e8e2)"
				d="M16 0h223.238c8.837 0 16 7.163 16 16s-7.163 16-16 16H16C7.163 32 0 24.837 0 16S7.163 0 16 0z" />
			<path fill="#6d8434" style="fill:var(--color3, #6d8434)"
				d="M118.97 15.266c1.632.416 2.869.768 2.869 2.475 0 1.216-.917 2.229-2.837 2.229-1.867 0-3.285-.971-3.36-2.699h1.269c.064.971.725 1.611 2.091 1.611 1.131 0 1.568-.501 1.568-1.088 0-.907-.651-1.077-2.155-1.451-1.195-.299-2.485-.757-2.485-2.208 0-1.355 1.045-2.112 2.709-2.112 1.675 0 2.891.875 2.997 2.443h-1.269c-.117-.885-.672-1.355-1.728-1.355-.907 0-1.451.341-1.451.907 0 .832.715.981 1.781 1.248zm6.174 3.786c.928 0 1.301-.576 1.397-.907h1.12c-.277 1.035-1.088 1.824-2.485 1.824-1.696 0-2.731-1.173-2.731-2.88 0-1.771 1.035-2.88 2.677-2.88 1.76 0 2.624 1.227 2.624 3.168h-4.181c0 .917.587 1.675 1.579 1.675zm-.022-3.957c-.907 0-1.557.608-1.557 1.451h3.061c0-.843-.597-1.451-1.504-1.451zm6.326-.885c1.013 0 1.813.587 1.813 1.835v3.765h-1.131v-3.445c0-.736-.309-1.205-1.077-1.205-.864 0-1.419.523-1.419 1.333v3.317h-1.12v-5.451h1.12v.704h.021c.288-.427.853-.853 1.792-.853zm6.666-2.027h1.12v7.627h-1.12v-.629h-.021c-.288.373-.821.789-1.664.789-1.397 0-2.432-1.088-2.432-2.88s1.035-2.88 2.432-2.88c.843 0 1.376.395 1.664.811h.021v-2.837zm-1.493 6.869c.917 0 1.483-.757 1.483-1.963 0-1.216-.565-1.963-1.483-1.963-.981 0-1.504.896-1.504 1.963s.523 1.963 1.504 1.963z" />
		</symbol>
		<symbol id="icon-send-mobile" viewBox="0 0 255 32">
			<path fill="#e8e8e2" style="fill:var(--color2, #e8e8e2)"
				d="M16 0h223.238c8.837 0 16 7.163 16 16s-7.163 16-16 16H16C7.163 32 0 24.837 0 16S7.163 0 16 0z" />
			<path fill="#010101" style="fill:var(--color4, #010101)"
				d="M118.97 15.266c1.632.416 2.869.768 2.869 2.475 0 1.216-.917 2.229-2.837 2.229-1.867 0-3.285-.971-3.36-2.699h1.269c.064.971.725 1.611 2.091 1.611 1.131 0 1.568-.501 1.568-1.088 0-.907-.651-1.077-2.155-1.451-1.195-.299-2.485-.757-2.485-2.208 0-1.355 1.045-2.112 2.709-2.112 1.675 0 2.891.875 2.997 2.443h-1.269c-.117-.885-.672-1.355-1.728-1.355-.907 0-1.451.341-1.451.907 0 .832.715.981 1.781 1.248zm6.174 3.786c.928 0 1.301-.576 1.397-.907h1.12c-.277 1.035-1.088 1.824-2.485 1.824-1.696 0-2.731-1.173-2.731-2.88 0-1.771 1.035-2.88 2.677-2.88 1.76 0 2.624 1.227 2.624 3.168h-4.181c0 .917.587 1.675 1.579 1.675zm-.022-3.957c-.907 0-1.557.608-1.557 1.451h3.061c0-.843-.597-1.451-1.504-1.451zm6.326-.885c1.013 0 1.813.587 1.813 1.835v3.765h-1.131v-3.445c0-.736-.309-1.205-1.077-1.205-.864 0-1.419.523-1.419 1.333v3.317h-1.12v-5.451h1.12v.704h.021c.288-.427.853-.853 1.792-.853zm6.666-2.027h1.12v7.627h-1.12v-.629h-.021c-.288.373-.821.789-1.664.789-1.397 0-2.432-1.088-2.432-2.88s1.035-2.88 2.432-2.88c.843 0 1.376.395 1.664.811h.021v-2.837zm-1.493 6.869c.917 0 1.483-.757 1.483-1.963 0-1.216-.565-1.963-1.483-1.963-.981 0-1.504.896-1.504 1.963s.523 1.963 1.504 1.963z" />
		</symbol>
		<symbol id="icon-send-hover" viewBox="0 0 224 32">
			<path fill="#e8e8e2" style="fill:var(--color2, #e8e8e2)"
				d="M16 0h192c8.837 0 16 7.163 16 16s-7.163 16-16 16H16C7.163 32 0 24.837 0 16S7.163 0 16 0z" />
			<path fill="#6d8434" style="fill:var(--color3, #6d8434)"
				d="M103.208 15.456c1.632.416 2.869.768 2.869 2.475 0 1.216-.917 2.229-2.837 2.229-1.867 0-3.285-.971-3.36-2.699h1.269c.064.971.725 1.611 2.091 1.611 1.131 0 1.568-.501 1.568-1.088 0-.907-.651-1.077-2.155-1.451-1.195-.299-2.485-.757-2.485-2.208 0-1.355 1.045-2.112 2.709-2.112 1.675 0 2.891.875 2.997 2.443h-1.269c-.117-.885-.672-1.355-1.728-1.355-.907 0-1.451.341-1.451.907 0 .832.715.981 1.781 1.248zm6.173 3.787c.928 0 1.301-.576 1.397-.907h1.12c-.277 1.035-1.088 1.824-2.485 1.824-1.696 0-2.731-1.173-2.731-2.88 0-1.771 1.035-2.88 2.677-2.88 1.76 0 2.624 1.227 2.624 3.168h-4.181c0 .917.587 1.675 1.579 1.675zm-.021-3.958c-.907 0-1.557.608-1.557 1.451h3.061c0-.843-.597-1.451-1.504-1.451zm6.325-.885c1.013 0 1.813.587 1.813 1.835V20h-1.131v-3.445c0-.736-.309-1.205-1.077-1.205-.864 0-1.419.523-1.419 1.333V20h-1.12v-5.451h1.12v.704h.021c.288-.427.853-.853 1.792-.853zm6.667-2.027h1.12V20h-1.12v-.629h-.021c-.288.373-.821.789-1.664.789-1.397 0-2.432-1.088-2.432-2.88s1.035-2.88 2.432-2.88c.843 0 1.376.395 1.664.811h.021v-2.837zm-1.493 6.87c.917 0 1.483-.757 1.483-1.963 0-1.216-.565-1.963-1.483-1.963-.981 0-1.504.896-1.504 1.963s.523 1.963 1.504 1.963z" />
		</symbol>
		<symbol id="icon-send" viewBox="0 0 224 32">
			<path fill="#e8e8e2" style="fill:var(--color2, #e8e8e2)"
				d="M16 0h192c8.837 0 16 7.163 16 16s-7.163 16-16 16H16C7.163 32 0 24.837 0 16S7.163 0 16 0z" />
			<path fill="#010101" style="fill:var(--color4, #010101)"
				d="M103.208 15.456c1.632.416 2.869.768 2.869 2.475 0 1.216-.917 2.229-2.837 2.229-1.867 0-3.285-.971-3.36-2.699h1.269c.064.971.725 1.611 2.091 1.611 1.131 0 1.568-.501 1.568-1.088 0-.907-.651-1.077-2.155-1.451-1.195-.299-2.485-.757-2.485-2.208 0-1.355 1.045-2.112 2.709-2.112 1.675 0 2.891.875 2.997 2.443h-1.269c-.117-.885-.672-1.355-1.728-1.355-.907 0-1.451.341-1.451.907 0 .832.715.981 1.781 1.248zm6.173 3.787c.928 0 1.301-.576 1.397-.907h1.12c-.277 1.035-1.088 1.824-2.485 1.824-1.696 0-2.731-1.173-2.731-2.88 0-1.771 1.035-2.88 2.677-2.88 1.76 0 2.624 1.227 2.624 3.168h-4.181c0 .917.587 1.675 1.579 1.675zm-.021-3.958c-.907 0-1.557.608-1.557 1.451h3.061c0-.843-.597-1.451-1.504-1.451zm6.325-.885c1.013 0 1.813.587 1.813 1.835V20h-1.131v-3.445c0-.736-.309-1.205-1.077-1.205-.864 0-1.419.523-1.419 1.333V20h-1.12v-5.451h1.12v.704h.021c.288-.427.853-.853 1.792-.853zm6.667-2.027h1.12V20h-1.12v-.629h-.021c-.288.373-.821.789-1.664.789-1.397 0-2.432-1.088-2.432-2.88s1.035-2.88 2.432-2.88c.843 0 1.376.395 1.664.811h.021v-2.837zm-1.493 6.87c.917 0 1.483-.757 1.483-1.963 0-1.216-.565-1.963-1.483-1.963-.981 0-1.504.896-1.504 1.963s.523 1.963 1.504 1.963z" />
		</symbol>
		<symbol id="icon-addet-to-mobile" viewBox="0 0 101 32">
			<path fill="#586f1f" style="fill:var(--color1, #586f1f)"
				d="M16 0h68.571c8.837 0 16 7.163 16 16s-7.163 16-16 16H16C7.163 32 0 24.837 0 16S7.163 0 16 0z" />
			<path fill="#e8e8e2" style="fill:var(--color2, #e8e8e2)"
				d="M23.374 18.007h-3.115l-.619 1.803h-1.291l2.805-7.627h1.333l2.795 7.627h-1.291l-.619-1.803zm-2.763-1.056h2.421l-1.195-3.605h-.021l-1.205 3.605zm8.923-4.768h1.12v7.627h-1.12v-.629h-.021c-.288.373-.821.789-1.664.789-1.397 0-2.432-1.088-2.432-2.88s1.035-2.88 2.432-2.88c.843 0 1.376.395 1.664.811h.021v-2.837zm-1.494 6.869c.917 0 1.483-.757 1.483-1.963 0-1.216-.565-1.963-1.483-1.963-.981 0-1.504.896-1.504 1.963s.523 1.963 1.504 1.963zm7.515-6.869h1.12v7.627h-1.12v-.629h-.021c-.288.373-.821.789-1.664.789-1.397 0-2.432-1.088-2.432-2.88s1.035-2.88 2.432-2.88c.843 0 1.376.395 1.664.811h.021v-2.837zm-1.494 6.869c.917 0 1.483-.757 1.483-1.963 0-1.216-.565-1.963-1.483-1.963-.981 0-1.504.896-1.504 1.963s.523 1.963 1.504 1.963zm6.096 0c.928 0 1.301-.576 1.397-.907h1.12c-.277 1.035-1.088 1.824-2.485 1.824-1.696 0-2.731-1.173-2.731-2.88 0-1.771 1.035-2.88 2.677-2.88 1.76 0 2.624 1.227 2.624 3.168h-4.181c0 .917.587 1.675 1.579 1.675zm-.022-3.957c-.907 0-1.557.608-1.557 1.451h3.061c0-.843-.597-1.451-1.504-1.451zm7.222-2.912h1.12v7.627h-1.12v-.629h-.021c-.288.373-.821.789-1.664.789-1.397 0-2.432-1.088-2.432-2.88s1.035-2.88 2.432-2.88c.843 0 1.376.395 1.664.811h.021v-2.837zm-1.494 6.869c.917 0 1.483-.757 1.483-1.963 0-1.216-.565-1.963-1.483-1.963-.981 0-1.504.896-1.504 1.963s.523 1.963 1.504 1.963zm8.319-3.776h-1.024v2.955c0 .619.299.693 1.024.651v.917a3.263 3.263 0 0 1-.768.085c-.896 0-1.387-.405-1.387-1.557v-3.051h-.789v-.917h.789v-1.717h1.131v1.717h1.024v.917zm3.215 4.694c-1.707 0-2.741-1.184-2.741-2.88s1.035-2.88 2.741-2.88c1.707 0 2.741 1.184 2.741 2.88s-1.035 2.88-2.741 2.88zm0-.918c1.067 0 1.621-.843 1.621-1.963 0-1.131-.555-1.963-1.621-1.963s-1.621.832-1.621 1.963c0 1.12.555 1.963 1.621 1.963zM70.629 9.829a.685.685 0 1 0 0 1.372h.837l.209.838.007.029.931 3.723-.612.612c-.864.864-.252 2.341.97 2.341h5.888a.687.687 0 0 0 0-1.372h-5.888l.686-.686h4.516a.684.684 0 0 0 .612-.38l2.057-4.114a.682.682 0 0 0-.278-.905.685.685 0 0 0-.334-.087h-7.351l-.213-.852a.688.688 0 0 0-.665-.519H70.63zm8.915 10.628a1.029 1.029 0 1 1-2.058-.001 1.029 1.029 0 0 1 2.058.001zm-6.515 1.029a1.027 1.027 0 1 0 .001-2.054 1.027 1.027 0 0 0-.001 2.054z" />
		</symbol>
		<symbol id="icon-addet-to" viewBox="0 0 104 32">
			<path fill="#586f1f" style="fill:var(--color1, #586f1f)"
				d="M16 0h72c8.837 0 16 7.163 16 16s-7.163 16-16 16H16C7.163 32 0 24.837 0 16S7.163 0 16 0z" />
			<path fill="#e8e8e2" style="fill:var(--color2, #e8e8e2)"
				d="M21.306 18.637h-3.738l-.742 2.163h-1.549l3.366-9.152h1.6l3.354 9.152h-1.549l-.742-2.163zM17.99 17.37h2.906l-1.434-4.326h-.026L17.99 17.37zm10.708-5.722h1.344V20.8h-1.344v-.755h-.026c-.346.448-.986.947-1.997.947-1.677 0-2.918-1.306-2.918-3.456s1.242-3.456 2.918-3.456c1.011 0 1.651.474 1.997.973h.026v-3.405zm-1.792 8.243c1.101 0 1.779-.909 1.779-2.355 0-1.459-.678-2.355-1.779-2.355-1.178 0-1.805 1.075-1.805 2.355s.627 2.355 1.805 2.355zm9.017-8.243h1.344V20.8h-1.344v-.755h-.026c-.346.448-.986.947-1.997.947-1.677 0-2.918-1.306-2.918-3.456s1.242-3.456 2.918-3.456c1.011 0 1.651.474 1.997.973h.026v-3.405zm-1.792 8.243c1.101 0 1.779-.909 1.779-2.355 0-1.459-.678-2.355-1.779-2.355-1.178 0-1.805 1.075-1.805 2.355s.627 2.355 1.805 2.355zm7.314 0c1.114 0 1.562-.691 1.677-1.088h1.344c-.333 1.242-1.306 2.189-2.982 2.189-2.035 0-3.277-1.408-3.277-3.456 0-2.125 1.242-3.456 3.213-3.456 2.112 0 3.149 1.472 3.149 3.802h-5.018c0 1.101.704 2.01 1.894 2.01zm-.025-4.749c-1.088 0-1.869.73-1.869 1.741h3.674c0-1.011-.717-1.741-1.805-1.741zm8.665-3.494h1.344V20.8h-1.344v-.755h-.026c-.346.448-.986.947-1.997.947-1.677 0-2.918-1.306-2.918-3.456s1.242-3.456 2.918-3.456c1.011 0 1.651.474 1.997.973h.026v-3.405zm-1.792 8.243c1.101 0 1.779-.909 1.779-2.355 0-1.459-.678-2.355-1.779-2.355-1.178 0-1.805 1.075-1.805 2.355s.627 2.355 1.805 2.355zm9.983-4.531h-1.229v3.546c0 .742.358.832 1.229.781v1.101a3.899 3.899 0 0 1-.922.102c-1.075 0-1.664-.486-1.664-1.869V15.36h-.947v-1.101h.947v-2.061h1.357v2.061h1.229v1.101zm3.858 5.632c-2.048 0-3.29-1.421-3.29-3.456s1.242-3.456 3.29-3.456 3.29 1.421 3.29 3.456-1.242 3.456-3.29 3.456zm0-1.101c1.28 0 1.946-1.011 1.946-2.355 0-1.357-.666-2.355-1.946-2.355s-1.946.998-1.946 2.355c0 1.344.666 2.355 1.946 2.355zM76.56 9.52a.72.72 0 0 0 0 1.44h.878l.22.88.007.03.978 3.91-.643.642c-.907.907-.265 2.458 1.018 2.458H85.2a.72.72 0 0 0 0-1.44h-6.182l.72-.72h4.742c.134 0 .265-.037.378-.108s.206-.171.266-.29l2.16-4.32a.725.725 0 0 0-.032-.7.73.73 0 0 0-.612-.341h-7.718l-.223-.895a.723.723 0 0 0-.698-.545h-1.44zm9.36 11.16a1.078 1.078 0 0 1-1.844.764 1.083 1.083 0 0 1 0-1.528 1.084 1.084 0 0 1 1.528 0c.202.203.316.477.316.764zm-6.84 1.08a1.077 1.077 0 0 0 1.08-1.08 1.077 1.077 0 0 0-1.08-1.08A1.077 1.077 0 0 0 78 20.68a1.077 1.077 0 0 0 1.08 1.08z" />
		</symbol>
		<symbol id="icon-logofooter-mob" viewBox="0 0 176 32">
			<path fill="#e8e8e2" style="fill:var(--color2, #e8e8e2)"
				d="M32 16c0 8.837-7.163 16-16 16S0 24.837 0 16 7.163 0 16 0s16 7.163 16 16z" />
			<path fill="#6d8434" style="fill:var(--color3, #6d8434)"
				d="M16.849 9.499a3.066 3.066 0 0 0-1.038-.975c-1.149-.659-2.629-.543-3.995.222C9.28 10.167 7.619 12.838 7.619 16c0 4.221 3.055 7.629 7.045 8.274.436.07.881.107 1.336.107a8.35 8.35 0 0 0 8.381-8.446c-.018-1.472-.608-3.278-1.541-4.722-.93-1.438-2.359-2.749-4.135-2.732-.867.002-1.459.478-1.855 1.019v-.001zm5.071 3.158a3.605 3.605 0 0 0-.962-.025l-.884-1.486-1.309.777.68 1.143a5.188 5.188 0 0 0-.811.476.566.566 0 0 0-.014-.044c-.203-.617-.597-1.124-1.121-1.627l.003-.015c.053-.246.136-.564.262-.872.284-.698.614-.981.945-.981h.008c.984-.011 2.008.744 2.843 2.035.13.2.25.407.361.619l-.001.001zm-4.694 2.284a4.05 4.05 0 0 0-.762.089 2.867 2.867 0 0 0-.809-.872 2.454 2.454 0 0 0-2.318-.299 11.947 11.947 0 0 0-.247-.138l2.463-2.414-1.067-1.088-2.922 2.864c-.617-.179-1.194-.243-1.712-.171a6.63 6.63 0 0 1 2.708-2.836c1.039-.582 1.933-.55 2.492-.229.533.306.976.999.865 2.238l-.034.383.288.255c.626.554.887.912 1 1.254.079.24.105.53.054.965zm-2.141.766c-.651.545-1.087 1.309-1.341 2.135l-2.266-2.488-1.127 1.027 3.115 3.419c-.004.908.113 1.838.282 2.678a6.822 6.822 0 0 1-4.606-6.479c0-.792.22-1.224.479-1.413.245-.18.782-.327 1.882.079.398.147.858.373 1.384.7l.382.238.393-.221c.475-.267.837-.172 1.115.023.122.085.226.192.306.301zm1.345 7.136 5.556-6.123-1.128-1.024-2.234 2.462.005-.773-1.524-.011-.018 2.476-1.892 2.085c-.143-.778-.229-1.614-.201-2.398.049-1.337.583-2.436 1.373-2.871.328-.181.906-.251 1.363-.171l.678.118.187-.662c.098-.345.356-.715.76-1.044.41-.331.887-.569 1.397-.698.61-.149 1.131-.072 1.474.165.299.206.6.626.629 1.489v.014l.002.122a6.822 6.822 0 0 1-6.427 6.843z" />
			<path fill="#e8e8e2" style="fill:var(--color2, #e8e8e2)"
				d="M41.76 22.034c1.008-.123 1.563-.576 1.563-1.378v-8.373c0-.802-.555-1.275-1.563-1.378v-.823h10.45c.185 0 .267.062.288.206.062.617.103 1.234.432 2.736h-.514c-.72-1.255-1.337-1.913-2.551-1.913h-1.749c-.926 0-1.317.514-1.317 1.337v2.16c0 .823.391 1.275 1.317 1.275h.823c1.666 0 1.975-.391 2.139-1.317h.453v3.662h-.453c-.165-.864-.473-1.296-2.139-1.296h-.823c-.926 0-1.317.453-1.317 1.275v2.448c0 .802.555 1.255 1.769 1.378v.823h-6.809v-.823zm16.362.947c-2.53 0-5.102-1.522-5.102-4.855 0-3.312 2.571-4.731 5.04-4.731 2.551 0 5.102 1.522 5.102 4.855 0 3.312-2.551 4.731-5.04 4.731zm-1.81-5.76c0 2.551.843 4.814 2.16 4.814.802 0 1.399-.802 1.399-2.921 0-2.53-.802-4.793-2.16-4.793-.823 0-1.399.823-1.399 2.901zm12.87 5.76c-2.53 0-5.102-1.522-5.102-4.855 0-3.312 2.571-4.731 5.04-4.731 2.551 0 5.102 1.522 5.102 4.855 0 3.312-2.551 4.731-5.04 4.731zm-1.811-5.76c0 2.551.843 4.814 2.16 4.814.802 0 1.399-.802 1.399-2.921 0-2.53-.802-4.793-2.16-4.793-.823 0-1.399.823-1.399 2.901zm11.698 5.76c-1.934 0-3.929-1.584-3.929-4.629 0-3.271 2.242-4.958 4.423-4.958 2.263 0 2.859 1.769 2.859-.309v-1.234c0-.967-.535-1.131-1.296-1.07v-.802l3.353-.555c.699-.103 1.029.206 1.029.823v10.512c0 .679.267 1.131.864.885v.453c-.288.699-1.029.885-1.666.885-.699 0-1.584-.226-1.831-.843-.165-.391-.35-.597-.658-.597-.411 0-1.234 1.44-3.147 1.44zm-.617-5.699c0 2.037.905 4.032 2.222 4.032.802 0 1.749-.576 1.749-2.304v-.967c0-2.674-1.255-3.723-2.283-3.723-1.049 0-1.687 1.296-1.687 2.962zm12.237 4.752c1.008-.123 1.563-.576 1.563-1.378v-8.352c0-.823-.555-1.296-1.563-1.399v-.823h6.357c4.032 0 6.027.967 6.027 3.045 0 1.173-.679 2.325-3.024 2.695 2.633.37 3.765 1.605 3.765 3.353 0 2.386-2.119 3.682-4.999 3.682-1.646 0-5.143-.514-8.126 0v-.823zm5.041-1.069c0 .535.329.782.926.782h.72c1.563 0 2.736-.597 2.736-2.592 0-1.934-1.193-2.777-3.456-2.777-.535 0-.926.411-.926 1.234v3.353zm0-6.81c0 .823.391 1.234 1.317 1.234h.535c1.419 0 1.79-1.111 1.79-2.057 0-1.44-.782-2.242-2.119-2.242h-.206c-.926 0-1.317.432-1.317 1.255v1.81zm14.114 8.826c-2.53 0-5.102-1.522-5.102-4.855 0-3.312 2.571-4.731 5.04-4.731 2.551 0 5.102 1.522 5.102 4.855 0 3.312-2.551 4.731-5.041 4.731zm-1.81-5.76c0 2.551.843 4.814 2.16 4.814.802 0 1.399-.802 1.399-2.921 0-2.53-.802-4.793-2.16-4.793-.823 0-1.399.823-1.399 2.901zm11.321 5.76c-1.44 0-3.003-.597-3.003-3.826v-3.271c0-.946-.535-1.111-1.296-1.09v-.802l3.353-.555c.699-.103 1.029.206 1.029.823v4.402c0 1.44.597 2.469 1.707 2.469 1.131 0 1.707-1.029 1.707-2.469v-2.777c0-.946-.535-1.111-1.296-1.09v-.802l3.333-.555c.72-.103 1.049.206 1.049.823v6.501c0 .679.267 1.131.864.885v.453c-.288.699-1.029.885-1.728.885-1.481 0-1.893-.926-1.995-1.378-.062-.288-.226-.432-.37-.432s-.247.123-.35.267c-.576.782-1.378 1.543-3.003 1.543zm12.268-.021c-1.893 0-3.045-1.049-3.045-3.045V15.41c0-.72-.165-.864-.638-.864h-.926v-.658c1.707-.391 2.53-1.173 3.23-2.304.165-.267.309-.35.576-.35h.37c.309 0 .494.185.494.494l-.021 1.275c0 .453.226.576 1.275.576h1.337v1.09l-1.337-.082c-1.049-.062-1.275.123-1.275.864v4.361c0 1.131.123 1.893 1.131 1.893.267 0 .679-.041 1.07-.329.267.329.37.617.103.864-.473.411-1.317.72-2.345.72zm3.483-.905c.946-.062 1.296-.37 1.296-1.481v-4.711c0-.967-.535-1.131-1.275-1.07v-.802l3.333-.555c.699-.103 1.029.206 1.029.823v6.315c0 1.111.35 1.419 1.275 1.481v.802h-5.657v-.802zm.803-11.212c0-.987.823-1.749 1.79-1.749.946 0 1.749.761 1.749 1.749s-.802 1.749-1.749 1.749c-.967 0-1.79-.761-1.79-1.749zm10.997 15.141c1.173-.082 1.522-.391 1.522-1.419v-2.201c0-.37-.185-.494-.37-.494a.406.406 0 0 0-.288.123c-.411.411-1.296.987-2.592.987-2.119 0-4.073-1.563-4.073-4.587 0-3.291 2.283-4.999 4.649-4.999 2.057 0 2.921 1.255 3.682 1.255.72 0 1.008-1.234 1.584-1.234.37 0 .494.206.494.494v10.656c0 1.029.35 1.337 1.275 1.419v.782h-5.883v-.782zm-2.489-8.722c0 2.037.864 4.053 2.304 4.053.782 0 1.687-.576 1.707-2.88-.021-3.086-1.296-4.114-2.325-4.114-1.111 0-1.687 1.296-1.687 2.942zm12.367 5.719c-1.44 0-3.003-.597-3.003-3.826v-3.271c0-.946-.535-1.111-1.296-1.09v-.802l3.353-.555c.699-.103 1.029.206 1.029.823v4.402c0 1.44.597 2.469 1.707 2.469 1.131 0 1.707-1.029 1.707-2.469v-2.777c0-.946-.535-1.111-1.296-1.09v-.802l3.333-.555c.72-.103 1.049.206 1.049.823v6.501c0 .679.267 1.131.864.885v.453c-.288.699-1.029.885-1.728.885-1.481 0-1.893-.926-1.995-1.378-.062-.288-.226-.432-.37-.432s-.247.123-.35.267c-.576.782-1.378 1.543-3.003 1.543zm13.391 0c-2.571 0-5.122-1.481-5.122-4.711 0-3.374 2.757-4.875 5.307-4.875 2.181 0 3.95 1.09 3.95 2.901 0 1.851-1.79 1.954-3.6 2.098l-1.605.123c-.35.021-.535.185-.535.658 0 1.522 1.646 2.201 3.003 2.201.72 0 1.707-.206 2.448-1.049l.617.555c-.391.802-2.057 2.098-4.464 2.098zm-1.749-6.151c0 .597.144.905.679.885l.741-.082c1.419-.144 1.707-.514 1.707-1.317 0-.987-.411-1.975-1.481-1.975-1.337 0-1.646 1.502-1.646 2.489z" />
		</symbol>
		<symbol id="icon-logofooter" viewBox="0 0 197 32">
			<path fill="#e8e8e2" style="fill:var(--color2, #e8e8e2)"
				d="M32 16c0 8.837-7.163 16-16 16S0 24.837 0 16 7.163 0 16 0s16 7.163 16 16z" />
			<path fill="#6d8434" style="fill:var(--color3, #6d8434)"
				d="M16.93 8.89a3.363 3.363 0 0 0-1.136-1.067c-1.257-.721-2.876-.594-4.37.243C8.65 9.62 6.833 12.542 6.833 16c0 4.617 3.342 8.344 7.706 9.05.477.077.964.117 1.461.117a9.128 9.128 0 0 0 6.516-2.701 9.142 9.142 0 0 0 2.651-6.537c-.019-1.61-.665-3.586-1.686-5.165-1.017-1.573-2.58-3.007-4.523-2.988-.948.002-1.596.523-2.028 1.115V8.89zm5.546 3.454a3.944 3.944 0 0 0-1.052-.027l-.967-1.625-1.432.85.743 1.25a5.631 5.631 0 0 0-.887.521l-.015-.048c-.223-.675-.652-1.229-1.226-1.78l.003-.017c.058-.269.149-.617.287-.954.311-.763.672-1.073 1.033-1.073h.009c1.076-.012 2.197.814 3.109 2.226a8.6 8.6 0 0 1 .395.677l-.001.001zm-5.134 2.498a4.382 4.382 0 0 0-.833.098 3.127 3.127 0 0 0-.885-.954 2.683 2.683 0 0 0-2.535-.328 11.72 11.72 0 0 0-.27-.151l2.694-2.641-1.167-1.19-3.196 3.133c-.675-.196-1.306-.266-1.872-.188a7.257 7.257 0 0 1 2.962-3.102c1.137-.637 2.114-.602 2.726-.251.583.334 1.068 1.093.946 2.448l-.037.419.315.279c.685.606.97.998 1.093 1.372.087.262.115.58.059 1.056zM15 15.679c-.712.596-1.189 1.432-1.467 2.335l-2.478-2.721-1.232 1.123 3.407 3.74c-.004.993.123 2.01.308 2.929A7.46 7.46 0 0 1 8.5 15.999c0-.867.241-1.339.524-1.546.268-.197.855-.357 2.058.087.435.161.938.408 1.514.766l.418.26.43-.242c.519-.292.916-.188 1.22.025.133.093.248.21.335.329zm1.471 7.806 6.077-6.697-1.234-1.12-2.443 2.692.006-.845-1.667-.012-.019 2.708-2.069 2.281c-.157-.851-.25-1.765-.22-2.622.053-1.462.637-2.664 1.502-3.14.358-.198.991-.275 1.491-.187l.742.129.204-.724c.107-.377.389-.782.831-1.142a3.97 3.97 0 0 1 1.528-.763c.668-.163 1.237-.078 1.612.18.328.225.657.685.688 1.628v.015l.003.133a7.468 7.468 0 0 1-7.029 7.485z" />
			<path fill="#e8e8e2" style="fill:var(--color2, #e8e8e2)"
				d="M40.72 23.04c1.176-.144 1.824-.672 1.824-1.608v-9.768c0-.936-.648-1.488-1.824-1.608v-.96h12.192c.216 0 .312.072.336.24.072.72.12 1.44.504 3.192h-.6c-.84-1.464-1.56-2.232-2.976-2.232h-2.04c-1.08 0-1.536.6-1.536 1.56v2.52c0 .96.456 1.488 1.536 1.488h.96c1.944 0 2.304-.456 2.496-1.536h.528V18.6h-.528c-.192-1.008-.552-1.512-2.496-1.512h-.96c-1.08 0-1.536.528-1.536 1.488v2.856c0 .936.648 1.464 2.064 1.608V24H40.72v-.96zm19.089 1.104c-2.952 0-5.952-1.776-5.952-5.664 0-3.864 3-5.52 5.88-5.52 2.976 0 5.952 1.776 5.952 5.664 0 3.864-2.976 5.52-5.88 5.52zm-2.112-6.72c0 2.976.984 5.616 2.52 5.616.936 0 1.632-.936 1.632-3.408 0-2.952-.936-5.592-2.52-5.592-.96 0-1.632.96-1.632 3.384zm15.015 6.72c-2.952 0-5.952-1.776-5.952-5.664 0-3.864 3-5.52 5.88-5.52 2.976 0 5.952 1.776 5.952 5.664 0 3.864-2.976 5.52-5.88 5.52zm-2.112-6.72c0 2.976.984 5.616 2.52 5.616.936 0 1.632-.936 1.632-3.408 0-2.952-.936-5.592-2.52-5.592-.96 0-1.632.96-1.632 3.384zm13.647 6.72c-2.256 0-4.584-1.848-4.584-5.4 0-3.816 2.616-5.784 5.16-5.784 2.64 0 3.336 2.064 3.336-.36v-1.44c0-1.128-.624-1.32-1.512-1.248v-.936l3.912-.648c.816-.12 1.2.24 1.2.96v12.264c0 .792.312 1.32 1.008 1.032v.528c-.336.816-1.2 1.032-1.944 1.032-.816 0-1.848-.264-2.136-.984-.192-.456-.408-.696-.768-.696-.48 0-1.44 1.68-3.672 1.68zm-.72-6.648c0 2.376 1.056 4.704 2.592 4.704.936 0 2.04-.672 2.04-2.688v-1.128c0-3.12-1.464-4.344-2.664-4.344-1.224 0-1.968 1.512-1.968 3.456zm14.277 5.544c1.176-.144 1.824-.672 1.824-1.608v-9.744c0-.96-.648-1.512-1.824-1.632v-.96h7.416c4.704 0 7.032 1.128 7.032 3.552 0 1.368-.792 2.712-3.528 3.144 3.072.432 4.392 1.872 4.392 3.912 0 2.784-2.472 4.296-5.832 4.296-1.92 0-6-.6-9.48 0v-.96zm5.88-1.248c0 .624.384.912 1.08.912h.84c1.824 0 3.192-.696 3.192-3.024 0-2.256-1.392-3.24-4.032-3.24-.624 0-1.08.48-1.08 1.44v3.912zm0-7.944c0 .96.456 1.44 1.536 1.44h.624c1.656 0 2.088-1.296 2.088-2.4 0-1.68-.912-2.616-2.472-2.616h-.24c-1.08 0-1.536.504-1.536 1.464v2.112zm16.467 10.296c-2.952 0-5.952-1.776-5.952-5.664 0-3.864 3-5.52 5.88-5.52 2.976 0 5.952 1.776 5.952 5.664 0 3.864-2.976 5.52-5.88 5.52zm-2.112-6.72c0 2.976.984 5.616 2.52 5.616.936 0 1.632-.936 1.632-3.408 0-2.952-.936-5.592-2.52-5.592-.96 0-1.632.96-1.632 3.384zm13.209 6.72c-1.68 0-3.504-.696-3.504-4.464v-3.816c0-1.104-.624-1.296-1.512-1.272v-.936l3.912-.648c.816-.12 1.2.24 1.2.96v5.136c0 1.68.696 2.88 1.992 2.88 1.32 0 1.992-1.2 1.992-2.88v-3.24c0-1.104-.624-1.296-1.512-1.272v-.936l3.888-.648c.84-.12 1.224.24 1.224.96v7.584c0 .792.312 1.32 1.008 1.032v.528c-.336.816-1.2 1.032-2.016 1.032-1.728 0-2.208-1.08-2.328-1.608-.072-.336-.264-.504-.432-.504s-.288.144-.408.312c-.672.912-1.608 1.8-3.504 1.8zm14.312-.024c-2.208 0-3.552-1.224-3.552-3.552v-5.256c0-.84-.192-1.008-.744-1.008h-1.08v-.768c1.992-.456 2.952-1.368 3.768-2.688.192-.312.36-.408.672-.408h.432c.36 0 .576.216.576.576l-.024 1.488c0 .528.264.672 1.488.672h1.56v1.272l-1.56-.096c-1.224-.072-1.488.144-1.488 1.008v5.088c0 1.32.144 2.208 1.32 2.208.312 0 .792-.048 1.248-.384.312.384.432.72.12 1.008-.552.48-1.536.84-2.736.84zm4.064-1.056c1.104-.072 1.512-.432 1.512-1.728V15.84c0-1.128-.624-1.32-1.488-1.248v-.936l3.888-.648c.816-.12 1.2.24 1.2.96v7.368c0 1.296.408 1.656 1.488 1.728V24h-6.6v-.936zm.936-13.08c0-1.152.96-2.04 2.088-2.04 1.104 0 2.04.888 2.04 2.04s-.936 2.04-2.04 2.04c-1.128 0-2.088-.888-2.088-2.04zm12.831 17.664c1.368-.096 1.776-.456 1.776-1.656v-2.568c0-.432-.216-.576-.432-.576-.12 0-.24.048-.336.144-.48.48-1.512 1.152-3.024 1.152-2.472 0-4.752-1.824-4.752-5.352 0-3.84 2.664-5.832 5.424-5.832 2.4 0 3.408 1.464 4.296 1.464.84 0 1.176-1.44 1.848-1.44.432 0 .576.24.576.576v12.432c0 1.2.408 1.56 1.488 1.656v.912h-6.864v-.912zm-2.904-10.176c0 2.376 1.008 4.728 2.688 4.728.912 0 1.968-.672 1.992-3.36-.024-3.6-1.512-4.8-2.712-4.8-1.296 0-1.968 1.512-1.968 3.432zm14.427 6.672c-1.68 0-3.504-.696-3.504-4.464v-3.816c0-1.104-.624-1.296-1.512-1.272v-.936l3.912-.648c.816-.12 1.2.24 1.2.96v5.136c0 1.68.696 2.88 1.992 2.88 1.32 0 1.992-1.2 1.992-2.88v-3.24c0-1.104-.624-1.296-1.512-1.272v-.936l3.888-.648c.84-.12 1.224.24 1.224.96v7.584c0 .792.312 1.32 1.008 1.032v.528c-.336.816-1.2 1.032-2.016 1.032-1.728 0-2.208-1.08-2.328-1.608-.072-.336-.264-.504-.432-.504s-.288.144-.408.312c-.672.912-1.608 1.8-3.504 1.8zm15.624 0c-3 0-5.976-1.728-5.976-5.496 0-3.936 3.216-5.688 6.192-5.688 2.544 0 4.608 1.272 4.608 3.384 0 2.16-2.088 2.28-4.2 2.448l-1.872.144c-.408.024-.624.216-.624.768 0 1.776 1.92 2.568 3.504 2.568.84 0 1.992-.24 2.856-1.224l.72.648c-.456.936-2.4 2.448-5.208 2.448zm-2.04-7.176c0 .696.168 1.056.792 1.032l.864-.096c1.656-.168 1.992-.6 1.992-1.536 0-1.152-.48-2.304-1.728-2.304-1.56 0-1.92 1.752-1.92 2.904z" />
		</symbol>
		<symbol id="icon-social-instagram-normal" viewBox="0 0 32 32">
			<path fill="none" stroke="#e8e8e2" style="stroke:var(--color1, #e8e8e2)"
				stroke-width=".727"
				d="M7.273.364h17.455a6.909 6.909 0 0 1 6.909 6.909v17.455a6.909 6.909 0 0 1-6.909 6.909H7.273a6.909 6.909 0 0 1-6.909-6.909V7.273A6.909 6.909 0 0 1 7.273.364z" />
			<path fill="#e8e8e2" style="fill:var(--color1, #e8e8e2)" opacity=".8"
				d="M24.093 12.663a5.895 5.895 0 0 0-.379-2.001 4.166 4.166 0 0 0-2.382-2.378 5.96 5.96 0 0 0-1.978-.379c-.87-.039-1.146-.05-3.355-.05s-2.492 0-3.356.05a5.99 5.99 0 0 0-1.977.379 4.163 4.163 0 0 0-2.382 2.378 5.916 5.916 0 0 0-.379 1.973c-.039.87-.051 1.145-.051 3.351s0 2.487.051 3.351c.014.676.141 1.342.379 1.975a4.166 4.166 0 0 0 2.383 2.377 5.94 5.94 0 0 0 1.977.406c.871.039 1.147.051 3.356.051s2.492 0 3.356-.051a6 6 0 0 0 1.978-.378 4.172 4.172 0 0 0 2.382-2.378 5.923 5.923 0 0 0 .379-1.975c.039-.869.051-1.144.051-3.351-.002-2.205-.002-2.485-.052-3.35zm-8.099 7.493c-2.31 0-4.182-1.869-4.182-4.175s1.872-4.175 4.182-4.175c2.309 0 4.182 1.869 4.182 4.175s-1.874 4.175-4.182 4.175zm4.348-7.531a.973.973 0 1 1 0-1.948.973.973 0 1 1 0 1.948z" />
			<path fill="#e8e8e2" style="fill:var(--color1, #e8e8e2)" opacity=".8"
				d="M15.995 18.53a2.548 2.548 0 1 0 0-5.097 2.548 2.548 0 0 0 0 5.097z" />
		</symbol>
		<symbol id="icon-social-instagram-hover" viewBox="0 0 32 32">
			<path fill="#e8e8e2" style="fill:var(--color1, #e8e8e2)" opacity=".2"
				d="M7.273 0h17.455a7.273 7.273 0 0 1 7.273 7.273v17.455a7.273 7.273 0 0 1-7.273 7.273H7.273A7.273 7.273 0 0 1 0 24.728V7.273A7.273 7.273 0 0 1 7.273 0z" />
			<path fill="none" stroke="#e8e8e2" style="stroke:var(--color1, #e8e8e2)"
				stroke-width=".727"
				d="M7.273.364h17.455a6.909 6.909 0 0 1 6.909 6.909v17.455a6.909 6.909 0 0 1-6.909 6.909H7.273a6.909 6.909 0 0 1-6.909-6.909V7.273A6.909 6.909 0 0 1 7.273.364z" />
			<path fill="#e8e8e2" style="fill:var(--color1, #e8e8e2)" opacity=".8"
				d="M24.093 12.663a5.895 5.895 0 0 0-.379-2.001 4.166 4.166 0 0 0-2.382-2.378 5.96 5.96 0 0 0-1.978-.379c-.87-.039-1.146-.05-3.355-.05s-2.492 0-3.356.05a5.99 5.99 0 0 0-1.977.379 4.163 4.163 0 0 0-2.382 2.378 5.916 5.916 0 0 0-.379 1.973c-.039.87-.051 1.145-.051 3.351s0 2.487.051 3.351c.014.676.141 1.342.379 1.975a4.166 4.166 0 0 0 2.383 2.377 5.94 5.94 0 0 0 1.977.406c.871.039 1.147.051 3.356.051s2.492 0 3.356-.051a6 6 0 0 0 1.978-.378 4.172 4.172 0 0 0 2.382-2.378 5.923 5.923 0 0 0 .379-1.975c.039-.869.051-1.144.051-3.351-.002-2.205-.002-2.485-.052-3.35zm-8.099 7.493c-2.31 0-4.182-1.869-4.182-4.175s1.872-4.175 4.182-4.175c2.309 0 4.182 1.869 4.182 4.175s-1.874 4.175-4.182 4.175zm4.348-7.531a.973.973 0 1 1 0-1.948.973.973 0 1 1 0 1.948z" />
			<path fill="#e8e8e2" style="fill:var(--color1, #e8e8e2)" opacity=".8"
				d="M15.995 18.53a2.548 2.548 0 1 0 0-5.097 2.548 2.548 0 0 0 0 5.097z" />
		</symbol>
		<symbol id="icon-social-youtube-hover" viewBox="0 0 32 32">
			<path fill="#e8e8e2" style="fill:var(--color1, #e8e8e2)" opacity=".2"
				d="M7.273 0h17.455a7.273 7.273 0 0 1 7.273 7.273v17.455a7.273 7.273 0 0 1-7.273 7.273H7.273A7.273 7.273 0 0 1 0 24.728V7.273A7.273 7.273 0 0 1 7.273 0z" />
			<path fill="none" stroke="#e8e8e2" style="stroke:var(--color1, #e8e8e2)"
				stroke-width=".727"
				d="M7.273.364h17.455a6.909 6.909 0 0 1 6.909 6.909v17.455a6.909 6.909 0 0 1-6.909 6.909H7.273a6.909 6.909 0 0 1-6.909-6.909V7.273A6.909 6.909 0 0 1 7.273.364z" />
			<path fill="#e8e8e2" style="fill:var(--color1, #e8e8e2)" opacity=".8"
				d="M21.244 9.636c-.865-.051-2.647-.102-5.345-.102h-.356c-2.596 0-4.327.051-5.193.153-1.171.102-1.986.407-2.444.815-.407.356-.713 1.018-.814 1.884-.051.56-.102 1.731-.102 3.513v.255c0 1.68.051 2.851.153 3.411.153.815.407 1.425.916 1.782.509.407 1.375.662 2.596.764.865.051 2.647.102 5.345.102h.356c2.596 0 4.327-.051 5.193-.153 1.171-.102 1.985-.407 2.444-.815.407-.356.713-1.018.814-1.884.051-.56.102-1.731.102-3.513v-.255c0-1.68-.051-2.851-.153-3.411-.153-.815-.407-1.425-.916-1.782-.509-.407-1.375-.662-2.596-.764zm-1.986 6.262-5.6 3.36v-6.72l5.6 3.36z" />
		</symbol>
		<symbol id="icon-social-youtube-normal" viewBox="0 0 32 32">
			<path fill="none" stroke="#e8e8e2" style="stroke:var(--color1, #e8e8e2)"
				stroke-width=".727"
				d="M7.273.364h17.455a6.909 6.909 0 0 1 6.909 6.909v17.455a6.909 6.909 0 0 1-6.909 6.909H7.273a6.909 6.909 0 0 1-6.909-6.909V7.273A6.909 6.909 0 0 1 7.273.364z" />
			<path fill="#e8e8e2" style="fill:var(--color1, #e8e8e2)" opacity=".8"
				d="M21.244 9.636c-.865-.051-2.647-.102-5.345-.102h-.356c-2.596 0-4.327.051-5.193.153-1.171.102-1.986.407-2.444.815-.407.356-.713 1.018-.814 1.884-.051.56-.102 1.731-.102 3.513v.255c0 1.68.051 2.851.153 3.411.153.815.407 1.425.916 1.782.509.407 1.375.662 2.596.764.865.051 2.647.102 5.345.102h.356c2.596 0 4.327-.051 5.193-.153 1.171-.102 1.985-.407 2.444-.815.407-.356.713-1.018.814-1.884.051-.56.102-1.731.102-3.513v-.255c0-1.68-.051-2.851-.153-3.411-.153-.815-.407-1.425-.916-1.782-.509-.407-1.375-.662-2.596-.764zm-1.986 6.262-5.6 3.36v-6.72l5.6 3.36z" />
		</symbol>
		<symbol id="icon-social-facebook-hover" viewBox="0 0 32 32">
			<path fill="#e8e8e2" style="fill:var(--color1, #e8e8e2)" opacity=".2"
				d="M7.273 0h17.455a7.273 7.273 0 0 1 7.273 7.273v17.455a7.273 7.273 0 0 1-7.273 7.273H7.273A7.273 7.273 0 0 1 0 24.728V7.273A7.273 7.273 0 0 1 7.273 0z" />
			<path fill="none" stroke="#e8e8e2" style="stroke:var(--color1, #e8e8e2)"
				stroke-width=".727"
				d="M7.273.364h17.455a6.909 6.909 0 0 1 6.909 6.909v17.455a6.909 6.909 0 0 1-6.909 6.909H7.273a6.909 6.909 0 0 1-6.909-6.909V7.273A6.909 6.909 0 0 1 7.273.364z" />
			<path fill="#e8e8e2" style="fill:var(--color1, #e8e8e2)" opacity=".8"
				d="M18.24 8.771h.611v2.291h-.764c-.306 0-.611 0-.764.153-.153.153-.153.305-.153.662v.815h1.68v1.935h-1.68v8.4h-2.596v-8.451h-1.375v-1.935h1.375v-.662c0-1.12.153-1.935.458-2.291.458-.662 1.375-.967 2.749-.967.153.051.305.051.458.051z" />
		</symbol>
		<symbol id="icon-social-facebook-normal" viewBox="0 0 32 32">
			<path fill="none" stroke="#e8e8e2" style="stroke:var(--color1, #e8e8e2)"
				stroke-width=".727"
				d="M7.273.364h17.455a6.909 6.909 0 0 1 6.909 6.909v17.455a6.909 6.909 0 0 1-6.909 6.909H7.273a6.909 6.909 0 0 1-6.909-6.909V7.273A6.909 6.909 0 0 1 7.273.364z" />
			<path fill="#e8e8e2" style="fill:var(--color1, #e8e8e2)" opacity=".8"
				d="M18.24 8.771h.611v2.291h-.764c-.306 0-.611 0-.764.153-.153.153-.153.305-.153.662v.815h1.68v1.935h-1.68v8.4h-2.596v-8.451h-1.375v-1.935h1.375v-.662c0-1.12.153-1.935.458-2.291.458-.662 1.375-.967 2.749-.967.153.051.305.051.458.051z" />
		</symbol>

	</defs>
</svg>